<?xml version="1.0" encoding="utf-8" standalone="no"?>
<!DOCTYPE svg PUBLIC "-//W3C//DTD SVG 1.1//EN"
  "http://www.w3.org/Graphics/SVG/1.1/DTD/svg11.dtd">
<svg xmlns:xlink="http://www.w3.org/1999/xlink" width="296.9pt" height="223.278125pt" viewBox="0 0 296.9 223.278125" xmlns="http://www.w3.org/2000/svg" version="1.1">
 <metadata>
  <rdf:RDF xmlns:dc="http://purl.org/dc/elements/1.1/" xmlns:cc="http://creativecommons.org/ns#" xmlns:rdf="http://www.w3.org/1999/02/22-rdf-syntax-ns#">
   <cc:Work>
    <dc:type rdf:resource="http://purl.org/dc/dcmitype/StillImage"/>
    <dc:date>2024-06-22T18:22:18.091603</dc:date>
    <dc:format>image/svg+xml</dc:format>
    <dc:creator>
     <cc:Agent>
      <dc:title>Matplotlib v3.5.2, https://matplotlib.org/</dc:title>
     </cc:Agent>
    </dc:creator>
   </cc:Work>
  </rdf:RDF>
 </metadata>
 <defs>
  <style type="text/css">*{stroke-linejoin: round; stroke-linecap: butt}</style>
 </defs>
 <g id="figure_1">
  <g id="patch_1">
   <path d="M 0 223.278125 
L 296.9 223.278125 
L 296.9 -0 
L 0 -0 
z
" style="fill: #ffffff"/>
  </g>
  <g id="axes_1">
   <g id="patch_2">
    <path d="M 10.7 212.578125 
L 289.7 212.578125 
L 289.7 22.318125 
L 10.7 22.318125 
z
" style="fill: #ffffff"/>
   </g>
   <g id="matplotlib.axis_1"/>
   <g id="matplotlib.axis_2"/>
   <g id="line2d_1">
    <path d="M 10.7 74.207216 
L 289.7 74.207216 
" clip-path="url(#pc9c3b2267e)" style="fill: none; stroke: #000000; stroke-width: 1.5; stroke-linecap: square"/>
   </g>
   <g id="line2d_2">
    <path d="M 10.7 160.689034 
L 289.7 160.689034 
" clip-path="url(#pc9c3b2267e)" style="fill: none; stroke: #000000; stroke-width: 1.5; stroke-linecap: square"/>
   </g>
   <g id="patch_3">
    <path d="M 10.7 212.578125 
L 10.7 22.318125 
" style="fill: none; stroke: #000000; stroke-width: 0.8; stroke-linejoin: miter; stroke-linecap: square"/>
   </g>
   <g id="patch_4">
    <path d="M 289.7 212.578125 
L 289.7 22.318125 
" style="fill: none; stroke: #000000; stroke-width: 0.8; stroke-linejoin: miter; stroke-linecap: square"/>
   </g>
   <g id="patch_5">
    <path d="M 10.7 212.578125 
L 289.7 212.578125 
" style="fill: none; stroke: #000000; stroke-width: 0.8; stroke-linejoin: miter; stroke-linecap: square"/>
   </g>
   <g id="patch_6">
    <path d="M 10.7 22.318125 
L 289.7 22.318125 
" style="fill: none; stroke: #000000; stroke-width: 0.8; stroke-linejoin: miter; stroke-linecap: square"/>
   </g>
   <g id="patch_7">
    <path d="M 94.65 39.614489 
Q 94.65 52.909801 94.65 66.205114 
L 96.9 66.205114 
Q 95.65 70.206165 94.4 74.207216 
Q 93.15 70.206165 91.9 66.205114 
L 94.15 66.205114 
Q 94.15 52.909801 94.15 39.614489 
L 94.65 39.614489 
z
" style="stroke: #000000; stroke-linecap: round"/>
   </g>
   <g id="text_1">
    <!-- $\dot Q_{in}$ -->
    <g transform="translate(94.4 56.910852)scale(0.08 -0.08)">
     <defs>
      <path id="DejaVuSans-307" d="M -1894 4863 
L -1319 4863 
L -1319 4134 
L -1894 4134 
L -1894 4863 
z
M -1600 3584 
L -1600 3584 
z
" transform="scale(0.015625)"/>
      <path id="DejaVuSans-Oblique-51" d="M 2309 -84 
Q 2275 -88 2237 -89 
Q 2200 -91 2125 -91 
Q 1250 -91 756 411 
Q 263 913 263 1797 
Q 263 2319 452 2844 
Q 641 3369 978 3788 
Q 1369 4269 1858 4509 
Q 2347 4750 2938 4750 
Q 3794 4750 4287 4245 
Q 4781 3741 4781 2869 
Q 4781 1928 4265 1147 
Q 3750 366 2919 44 
L 3553 -825 
L 2847 -825 
L 2309 -84 
z
M 2919 4238 
Q 2400 4238 2003 3986 
Q 1606 3734 1313 3219 
Q 1125 2891 1026 2522 
Q 928 2153 928 1778 
Q 928 1128 1239 775 
Q 1550 422 2119 422 
Q 2631 422 3032 676 
Q 3434 931 3719 1434 
Q 3909 1772 4009 2142 
Q 4109 2513 4109 2881 
Q 4109 3528 3796 3883 
Q 3484 4238 2919 4238 
z
" transform="scale(0.015625)"/>
      <path id="DejaVuSans-Oblique-69" d="M 1172 4863 
L 1747 4863 
L 1606 4134 
L 1031 4134 
L 1172 4863 
z
M 909 3500 
L 1484 3500 
L 800 0 
L 225 0 
L 909 3500 
z
" transform="scale(0.015625)"/>
      <path id="DejaVuSans-Oblique-6e" d="M 3566 2113 
L 3156 0 
L 2578 0 
L 2988 2091 
Q 3016 2238 3031 2350 
Q 3047 2463 3047 2528 
Q 3047 2791 2881 2937 
Q 2716 3084 2419 3084 
Q 1956 3084 1622 2776 
Q 1288 2469 1184 1941 
L 800 0 
L 225 0 
L 903 3500 
L 1478 3500 
L 1363 2950 
Q 1603 3253 1940 3418 
Q 2278 3584 2650 3584 
Q 3113 3584 3367 3334 
Q 3622 3084 3622 2631 
Q 3622 2519 3608 2391 
Q 3594 2263 3566 2113 
z
" transform="scale(0.015625)"/>
     </defs>
     <use xlink:href="#DejaVuSans-307" transform="translate(69.242188 31.015625)"/>
     <use xlink:href="#DejaVuSans-Oblique-51" transform="translate(0 0.296875)"/>
     <use xlink:href="#DejaVuSans-Oblique-69" transform="translate(79.667969 -16.109375)scale(0.7)"/>
     <use xlink:href="#DejaVuSans-Oblique-6e" transform="translate(99.116211 -16.109375)scale(0.7)"/>
    </g>
   </g>
   <g id="patch_8">
    <path d="M 205.75 74.207216 
Q 205.75 60.911903 205.75 47.61659 
L 203.5 47.61659 
Q 204.75 43.61554 206 39.614489 
Q 207.25 43.61554 208.5 47.61659 
L 206.25 47.61659 
Q 206.25 60.911903 206.25 74.207216 
L 205.75 74.207216 
z
" style="stroke: #000000; stroke-linecap: round"/>
   </g>
   <g id="text_2">
    <!-- $ε k_{sb} A {T_0}^4$ -->
    <g transform="translate(206 56.910852)scale(0.08 -0.08)">
     <defs>
      <path id="DejaVuSans-Oblique-3b5" d="M 1263 1888 
Q 925 1963 778 2166 
Q 669 2309 669 2503 
Q 669 3034 1175 3344 
Q 1575 3588 2188 3588 
Q 2425 3588 2684 3550 
Q 2944 3513 3234 3438 
L 3134 2916 
Q 2847 3006 2606 3047 
Q 2359 3088 2138 3088 
Q 1766 3088 1522 2944 
Q 1228 2772 1228 2522 
Q 1228 2356 1381 2241 
Q 1563 2103 1925 2103 
L 2409 2103 
L 2319 1628 
L 1856 1628 
Q 1425 1628 1172 1469 
Q 828 1253 828 916 
Q 828 703 1013 563 
Q 1244 388 1716 388 
Q 2006 388 2284 444 
Q 2563 503 2806 619 
L 2700 84 
Q 2403 -3 2131 -47 
Q 1859 -91 1609 -91 
Q 866 -91 516 194 
Q 250 413 250 781 
Q 250 1278 600 1584 
Q 859 1813 1263 1888 
z
" transform="scale(0.015625)"/>
      <path id="DejaVuSans-Oblique-6b" d="M 1172 4863 
L 1747 4863 
L 1197 2028 
L 3169 3500 
L 3916 3500 
L 1716 1825 
L 3322 0 
L 2625 0 
L 1131 1709 
L 800 0 
L 225 0 
L 1172 4863 
z
" transform="scale(0.015625)"/>
      <path id="DejaVuSans-Oblique-73" d="M 3200 3397 
L 3091 2853 
Q 2863 2978 2609 3040 
Q 2356 3103 2088 3103 
Q 1634 3103 1373 2948 
Q 1113 2794 1113 2528 
Q 1113 2219 1719 2053 
Q 1766 2041 1788 2034 
L 1972 1978 
Q 2547 1819 2739 1644 
Q 2931 1469 2931 1166 
Q 2931 609 2489 259 
Q 2047 -91 1331 -91 
Q 1053 -91 747 -37 
Q 441 16 72 128 
L 184 722 
Q 500 559 806 475 
Q 1113 391 1394 391 
Q 1816 391 2080 572 
Q 2344 753 2344 1031 
Q 2344 1331 1650 1516 
L 1591 1531 
L 1394 1581 
Q 956 1697 753 1886 
Q 550 2075 550 2369 
Q 550 2928 970 3256 
Q 1391 3584 2113 3584 
Q 2397 3584 2667 3537 
Q 2938 3491 3200 3397 
z
" transform="scale(0.015625)"/>
      <path id="DejaVuSans-Oblique-62" d="M 3169 2138 
Q 3169 2591 2961 2847 
Q 2753 3103 2388 3103 
Q 2122 3103 1889 2973 
Q 1656 2844 1484 2597 
Q 1303 2338 1198 1995 
Q 1094 1653 1094 1313 
Q 1094 881 1298 636 
Q 1503 391 1863 391 
Q 2134 391 2365 517 
Q 2597 644 2772 891 
Q 2950 1147 3059 1487 
Q 3169 1828 3169 2138 
z
M 1381 2969 
Q 1594 3256 1914 3420 
Q 2234 3584 2584 3584 
Q 3122 3584 3439 3221 
Q 3756 2859 3756 2241 
Q 3756 1734 3570 1259 
Q 3384 784 3041 416 
Q 2816 172 2522 40 
Q 2228 -91 1906 -91 
Q 1566 -91 1316 65 
Q 1066 222 909 531 
L 806 0 
L 231 0 
L 1178 4863 
L 1753 4863 
L 1381 2969 
z
" transform="scale(0.015625)"/>
      <path id="DejaVuSans-Oblique-41" d="M 2356 4666 
L 3072 4666 
L 3938 0 
L 3278 0 
L 3084 1197 
L 984 1197 
L 325 0 
L -341 0 
L 2356 4666 
z
M 2584 4044 
L 1275 1722 
L 2988 1722 
L 2584 4044 
z
" transform="scale(0.015625)"/>
      <path id="DejaVuSans-Oblique-54" d="M 378 4666 
L 4325 4666 
L 4225 4134 
L 2559 4134 
L 1759 0 
L 1125 0 
L 1925 4134 
L 275 4134 
L 378 4666 
z
" transform="scale(0.015625)"/>
      <path id="DejaVuSans-30" d="M 2034 4250 
Q 1547 4250 1301 3770 
Q 1056 3291 1056 2328 
Q 1056 1369 1301 889 
Q 1547 409 2034 409 
Q 2525 409 2770 889 
Q 3016 1369 3016 2328 
Q 3016 3291 2770 3770 
Q 2525 4250 2034 4250 
z
M 2034 4750 
Q 2819 4750 3233 4129 
Q 3647 3509 3647 2328 
Q 3647 1150 3233 529 
Q 2819 -91 2034 -91 
Q 1250 -91 836 529 
Q 422 1150 422 2328 
Q 422 3509 836 4129 
Q 1250 4750 2034 4750 
z
" transform="scale(0.015625)"/>
      <path id="DejaVuSans-34" d="M 2419 4116 
L 825 1625 
L 2419 1625 
L 2419 4116 
z
M 2253 4666 
L 3047 4666 
L 3047 1625 
L 3713 1625 
L 3713 1100 
L 3047 1100 
L 3047 0 
L 2419 0 
L 2419 1100 
L 313 1100 
L 313 1709 
L 2253 4666 
z
" transform="scale(0.015625)"/>
     </defs>
     <use xlink:href="#DejaVuSans-Oblique-3b5" transform="translate(0 0.684375)"/>
     <use xlink:href="#DejaVuSans-Oblique-6b" transform="translate(54.052734 0.684375)"/>
     <use xlink:href="#DejaVuSans-Oblique-73" transform="translate(111.962891 -15.721875)scale(0.7)"/>
     <use xlink:href="#DejaVuSans-Oblique-62" transform="translate(148.432617 -15.721875)scale(0.7)"/>
     <use xlink:href="#DejaVuSans-Oblique-41" transform="translate(195.600586 0.684375)"/>
     <use xlink:href="#DejaVuSans-Oblique-54" transform="translate(264.008789 0.684375)"/>
     <use xlink:href="#DejaVuSans-30" transform="translate(325.092773 -15.721875)scale(0.7)"/>
     <use xlink:href="#DejaVuSans-34" transform="translate(373.320312 38.965625)scale(0.7)"/>
    </g>
   </g>
   <g id="patch_9">
    <path d="M 206.25 74.207216 
Q 206.25 87.502529 206.25 100.797841 
L 208.5 100.797841 
Q 207.25 104.798892 206 108.799943 
Q 204.75 104.798892 203.5 100.797841 
L 205.75 100.797841 
Q 205.75 87.502529 205.75 74.207216 
L 206.25 74.207216 
z
" style="stroke: #000000; stroke-linecap: round"/>
   </g>
   <g id="text_3">
    <!-- $ε k_{sb} A {T_0}^4$ -->
    <g transform="translate(206 91.50358)scale(0.08 -0.08)">
     <use xlink:href="#DejaVuSans-Oblique-3b5" transform="translate(0 0.684375)"/>
     <use xlink:href="#DejaVuSans-Oblique-6b" transform="translate(54.052734 0.684375)"/>
     <use xlink:href="#DejaVuSans-Oblique-73" transform="translate(111.962891 -15.721875)scale(0.7)"/>
     <use xlink:href="#DejaVuSans-Oblique-62" transform="translate(148.432617 -15.721875)scale(0.7)"/>
     <use xlink:href="#DejaVuSans-Oblique-41" transform="translate(195.600586 0.684375)"/>
     <use xlink:href="#DejaVuSans-Oblique-54" transform="translate(264.008789 0.684375)"/>
     <use xlink:href="#DejaVuSans-30" transform="translate(325.092773 -15.721875)scale(0.7)"/>
     <use xlink:href="#DejaVuSans-34" transform="translate(373.320312 38.965625)scale(0.7)"/>
    </g>
   </g>
   <g id="patch_10">
    <path d="M 94.15 108.799943 
Q 94.15 95.50463 94.15 82.209318 
L 91.9 82.209318 
Q 93.15 78.208267 94.4 74.207216 
Q 95.65 78.208267 96.9 82.209318 
L 94.65 82.209318 
Q 94.65 95.50463 94.65 108.799943 
L 94.15 108.799943 
z
" style="stroke: #000000; stroke-linecap: round"/>
   </g>
   <g id="text_4">
    <!-- $ε k_{sb} A {T_N}^4$ -->
    <g transform="translate(94.4 91.50358)scale(0.08 -0.08)">
     <defs>
      <path id="DejaVuSans-Oblique-4e" d="M 1081 4666 
L 1931 4666 
L 3219 666 
L 4000 4666 
L 4616 4666 
L 3706 0 
L 2853 0 
L 1569 4025 
L 788 0 
L 172 0 
L 1081 4666 
z
" transform="scale(0.015625)"/>
     </defs>
     <use xlink:href="#DejaVuSans-Oblique-3b5" transform="translate(0 0.684375)"/>
     <use xlink:href="#DejaVuSans-Oblique-6b" transform="translate(54.052734 0.684375)"/>
     <use xlink:href="#DejaVuSans-Oblique-73" transform="translate(111.962891 -15.721875)scale(0.7)"/>
     <use xlink:href="#DejaVuSans-Oblique-62" transform="translate(148.432617 -15.721875)scale(0.7)"/>
     <use xlink:href="#DejaVuSans-Oblique-41" transform="translate(195.600586 0.684375)"/>
     <use xlink:href="#DejaVuSans-Oblique-54" transform="translate(264.008789 0.684375)"/>
     <use xlink:href="#DejaVuSans-Oblique-4e" transform="translate(325.092773 -15.721875)scale(0.7)"/>
     <use xlink:href="#DejaVuSans-34" transform="translate(381.147461 38.965625)scale(0.7)"/>
    </g>
   </g>
   <g id="text_5">
    <!-- film 0 -->
    <g transform="translate(261.8 72.823507)scale(0.08 -0.08)">
     <defs>
      <path id="DejaVuSans-66" d="M 2375 4863 
L 2375 4384 
L 1825 4384 
Q 1516 4384 1395 4259 
Q 1275 4134 1275 3809 
L 1275 3500 
L 2222 3500 
L 2222 3053 
L 1275 3053 
L 1275 0 
L 697 0 
L 697 3053 
L 147 3053 
L 147 3500 
L 697 3500 
L 697 3744 
Q 697 4328 969 4595 
Q 1241 4863 1831 4863 
L 2375 4863 
z
" transform="scale(0.015625)"/>
      <path id="DejaVuSans-69" d="M 603 3500 
L 1178 3500 
L 1178 0 
L 603 0 
L 603 3500 
z
M 603 4863 
L 1178 4863 
L 1178 4134 
L 603 4134 
L 603 4863 
z
" transform="scale(0.015625)"/>
      <path id="DejaVuSans-6c" d="M 603 4863 
L 1178 4863 
L 1178 0 
L 603 0 
L 603 4863 
z
" transform="scale(0.015625)"/>
      <path id="DejaVuSans-6d" d="M 3328 2828 
Q 3544 3216 3844 3400 
Q 4144 3584 4550 3584 
Q 5097 3584 5394 3201 
Q 5691 2819 5691 2113 
L 5691 0 
L 5113 0 
L 5113 2094 
Q 5113 2597 4934 2840 
Q 4756 3084 4391 3084 
Q 3944 3084 3684 2787 
Q 3425 2491 3425 1978 
L 3425 0 
L 2847 0 
L 2847 2094 
Q 2847 2600 2669 2842 
Q 2491 3084 2119 3084 
Q 1678 3084 1418 2786 
Q 1159 2488 1159 1978 
L 1159 0 
L 581 0 
L 581 3500 
L 1159 3500 
L 1159 2956 
Q 1356 3278 1631 3431 
Q 1906 3584 2284 3584 
Q 2666 3584 2933 3390 
Q 3200 3197 3328 2828 
z
" transform="scale(0.015625)"/>
      <path id="DejaVuSans-20" transform="scale(0.015625)"/>
     </defs>
     <use xlink:href="#DejaVuSans-66"/>
     <use xlink:href="#DejaVuSans-69" x="35.205078"/>
     <use xlink:href="#DejaVuSans-6c" x="62.988281"/>
     <use xlink:href="#DejaVuSans-6d" x="90.771484"/>
     <use xlink:href="#DejaVuSans-20" x="188.183594"/>
     <use xlink:href="#DejaVuSans-30" x="219.970703"/>
    </g>
   </g>
   <g id="patch_11">
    <path d="M 94.15 160.689034 
Q 94.15 147.393721 94.15 134.098409 
L 91.9 134.098409 
Q 93.15 130.097358 94.4 126.096307 
Q 95.65 130.097358 96.9 134.098409 
L 94.65 134.098409 
Q 94.65 147.393721 94.65 160.689034 
L 94.15 160.689034 
z
" style="stroke: #000000; stroke-linecap: round"/>
   </g>
   <g id="text_6">
    <!-- $ε k_{sb} A {T_N}^4$ -->
    <g transform="translate(94.4 143.39267)scale(0.08 -0.08)">
     <use xlink:href="#DejaVuSans-Oblique-3b5" transform="translate(0 0.684375)"/>
     <use xlink:href="#DejaVuSans-Oblique-6b" transform="translate(54.052734 0.684375)"/>
     <use xlink:href="#DejaVuSans-Oblique-73" transform="translate(111.962891 -15.721875)scale(0.7)"/>
     <use xlink:href="#DejaVuSans-Oblique-62" transform="translate(148.432617 -15.721875)scale(0.7)"/>
     <use xlink:href="#DejaVuSans-Oblique-41" transform="translate(195.600586 0.684375)"/>
     <use xlink:href="#DejaVuSans-Oblique-54" transform="translate(264.008789 0.684375)"/>
     <use xlink:href="#DejaVuSans-Oblique-4e" transform="translate(325.092773 -15.721875)scale(0.7)"/>
     <use xlink:href="#DejaVuSans-34" transform="translate(381.147461 38.965625)scale(0.7)"/>
    </g>
   </g>
   <g id="patch_12">
    <path d="M 206.25 126.096307 
Q 206.25 139.39162 206.25 152.686932 
L 208.5 152.686932 
Q 207.25 156.687983 206 160.689034 
Q 204.75 156.687983 203.5 152.686932 
L 205.75 152.686932 
Q 205.75 139.39162 205.75 126.096307 
L 206.25 126.096307 
z
" style="stroke: #000000; stroke-linecap: round"/>
   </g>
   <g id="text_7">
    <!-- $ε k_{sb} A {T_0}^4$ -->
    <g transform="translate(206 143.39267)scale(0.08 -0.08)">
     <use xlink:href="#DejaVuSans-Oblique-3b5" transform="translate(0 0.684375)"/>
     <use xlink:href="#DejaVuSans-Oblique-6b" transform="translate(54.052734 0.684375)"/>
     <use xlink:href="#DejaVuSans-Oblique-73" transform="translate(111.962891 -15.721875)scale(0.7)"/>
     <use xlink:href="#DejaVuSans-Oblique-62" transform="translate(148.432617 -15.721875)scale(0.7)"/>
     <use xlink:href="#DejaVuSans-Oblique-41" transform="translate(195.600586 0.684375)"/>
     <use xlink:href="#DejaVuSans-Oblique-54" transform="translate(264.008789 0.684375)"/>
     <use xlink:href="#DejaVuSans-30" transform="translate(325.092773 -15.721875)scale(0.7)"/>
     <use xlink:href="#DejaVuSans-34" transform="translate(373.320312 38.965625)scale(0.7)"/>
    </g>
   </g>
   <g id="patch_13">
    <path d="M 205.75 195.281761 
Q 205.75 181.986449 205.75 168.691136 
L 203.5 168.691136 
Q 204.75 164.690085 206 160.689034 
Q 207.25 164.690085 208.5 168.691136 
L 206.25 168.691136 
Q 206.25 181.986449 206.25 195.281761 
L 205.75 195.281761 
z
" style="stroke: #000000; stroke-linecap: round"/>
   </g>
   <g id="text_8">
    <!-- $\dot Q_{out}$ -->
    <g transform="translate(206 177.985398)scale(0.08 -0.08)">
     <defs>
      <path id="DejaVuSans-Oblique-6f" d="M 1625 -91 
Q 1009 -91 651 289 
Q 294 669 294 1325 
Q 294 1706 417 2101 
Q 541 2497 738 2766 
Q 1047 3184 1428 3384 
Q 1809 3584 2291 3584 
Q 2888 3584 3255 3212 
Q 3622 2841 3622 2241 
Q 3622 1825 3500 1412 
Q 3378 1000 3181 728 
Q 2875 309 2494 109 
Q 2113 -91 1625 -91 
z
M 891 1344 
Q 891 869 1089 633 
Q 1288 397 1691 397 
Q 2269 397 2648 901 
Q 3028 1406 3028 2181 
Q 3028 2634 2825 2865 
Q 2622 3097 2228 3097 
Q 1903 3097 1650 2945 
Q 1397 2794 1197 2484 
Q 1050 2253 970 1956 
Q 891 1659 891 1344 
z
" transform="scale(0.015625)"/>
      <path id="DejaVuSans-Oblique-75" d="M 428 1388 
L 838 3500 
L 1416 3500 
L 1006 1409 
Q 975 1256 961 1147 
Q 947 1038 947 966 
Q 947 700 1109 554 
Q 1272 409 1569 409 
Q 2031 409 2368 721 
Q 2706 1034 2809 1563 
L 3194 3500 
L 3769 3500 
L 3091 0 
L 2516 0 
L 2631 550 
Q 2388 244 2052 76 
Q 1716 -91 1338 -91 
Q 878 -91 622 161 
Q 366 413 366 863 
Q 366 956 381 1097 
Q 397 1238 428 1388 
z
" transform="scale(0.015625)"/>
      <path id="DejaVuSans-Oblique-74" d="M 2706 3500 
L 2619 3053 
L 1472 3053 
L 1100 1153 
Q 1081 1047 1072 975 
Q 1063 903 1063 863 
Q 1063 663 1183 572 
Q 1303 481 1569 481 
L 2150 481 
L 2053 0 
L 1503 0 
Q 991 0 739 200 
Q 488 400 488 806 
Q 488 878 497 964 
Q 506 1050 525 1153 
L 897 3053 
L 409 3053 
L 500 3500 
L 978 3500 
L 1172 4494 
L 1747 4494 
L 1556 3500 
L 2706 3500 
z
" transform="scale(0.015625)"/>
     </defs>
     <use xlink:href="#DejaVuSans-307" transform="translate(69.242188 31.015625)"/>
     <use xlink:href="#DejaVuSans-Oblique-51" transform="translate(0 0.296875)"/>
     <use xlink:href="#DejaVuSans-Oblique-6f" transform="translate(79.667969 -16.109375)scale(0.7)"/>
     <use xlink:href="#DejaVuSans-Oblique-75" transform="translate(122.495117 -16.109375)scale(0.7)"/>
     <use xlink:href="#DejaVuSans-Oblique-74" transform="translate(166.860352 -16.109375)scale(0.7)"/>
    </g>
   </g>
   <g id="patch_14">
    <path d="M 94.65 160.689034 
Q 94.65 173.984347 94.65 187.27966 
L 96.9 187.27966 
Q 95.65 191.28071 94.4 195.281761 
Q 93.15 191.28071 91.9 187.27966 
L 94.15 187.27966 
Q 94.15 173.984347 94.15 160.689034 
L 94.65 160.689034 
z
" style="stroke: #000000; stroke-linecap: round"/>
   </g>
   <g id="text_9">
    <!-- $ε k_{sb} A {T_N}^4$ -->
    <g transform="translate(94.4 177.985398)scale(0.08 -0.08)">
     <use xlink:href="#DejaVuSans-Oblique-3b5" transform="translate(0 0.684375)"/>
     <use xlink:href="#DejaVuSans-Oblique-6b" transform="translate(54.052734 0.684375)"/>
     <use xlink:href="#DejaVuSans-Oblique-73" transform="translate(111.962891 -15.721875)scale(0.7)"/>
     <use xlink:href="#DejaVuSans-Oblique-62" transform="translate(148.432617 -15.721875)scale(0.7)"/>
     <use xlink:href="#DejaVuSans-Oblique-41" transform="translate(195.600586 0.684375)"/>
     <use xlink:href="#DejaVuSans-Oblique-54" transform="translate(264.008789 0.684375)"/>
     <use xlink:href="#DejaVuSans-Oblique-4e" transform="translate(325.092773 -15.721875)scale(0.7)"/>
     <use xlink:href="#DejaVuSans-34" transform="translate(381.147461 38.965625)scale(0.7)"/>
    </g>
   </g>
   <g id="text_10">
    <!-- film N -->
    <g transform="translate(261.8 159.305325)scale(0.08 -0.08)">
     <defs>
      <path id="DejaVuSans-4e" d="M 628 4666 
L 1478 4666 
L 3547 763 
L 3547 4666 
L 4159 4666 
L 4159 0 
L 3309 0 
L 1241 3903 
L 1241 0 
L 628 0 
L 628 4666 
z
" transform="scale(0.015625)"/>
     </defs>
     <use xlink:href="#DejaVuSans-66"/>
     <use xlink:href="#DejaVuSans-69" x="35.205078"/>
     <use xlink:href="#DejaVuSans-6c" x="62.988281"/>
     <use xlink:href="#DejaVuSans-6d" x="90.771484"/>
     <use xlink:href="#DejaVuSans-20" x="188.183594"/>
     <use xlink:href="#DejaVuSans-4e" x="219.970703"/>
    </g>
   </g>
   <g id="text_11">
    <!-- enclosure -->
    <g transform="translate(136.25 198.741034)scale(0.08 -0.08)">
     <defs>
      <path id="DejaVuSans-65" d="M 3597 1894 
L 3597 1613 
L 953 1613 
Q 991 1019 1311 708 
Q 1631 397 2203 397 
Q 2534 397 2845 478 
Q 3156 559 3463 722 
L 3463 178 
Q 3153 47 2828 -22 
Q 2503 -91 2169 -91 
Q 1331 -91 842 396 
Q 353 884 353 1716 
Q 353 2575 817 3079 
Q 1281 3584 2069 3584 
Q 2775 3584 3186 3129 
Q 3597 2675 3597 1894 
z
M 3022 2063 
Q 3016 2534 2758 2815 
Q 2500 3097 2075 3097 
Q 1594 3097 1305 2825 
Q 1016 2553 972 2059 
L 3022 2063 
z
" transform="scale(0.015625)"/>
      <path id="DejaVuSans-6e" d="M 3513 2113 
L 3513 0 
L 2938 0 
L 2938 2094 
Q 2938 2591 2744 2837 
Q 2550 3084 2163 3084 
Q 1697 3084 1428 2787 
Q 1159 2491 1159 1978 
L 1159 0 
L 581 0 
L 581 3500 
L 1159 3500 
L 1159 2956 
Q 1366 3272 1645 3428 
Q 1925 3584 2291 3584 
Q 2894 3584 3203 3211 
Q 3513 2838 3513 2113 
z
" transform="scale(0.015625)"/>
      <path id="DejaVuSans-63" d="M 3122 3366 
L 3122 2828 
Q 2878 2963 2633 3030 
Q 2388 3097 2138 3097 
Q 1578 3097 1268 2742 
Q 959 2388 959 1747 
Q 959 1106 1268 751 
Q 1578 397 2138 397 
Q 2388 397 2633 464 
Q 2878 531 3122 666 
L 3122 134 
Q 2881 22 2623 -34 
Q 2366 -91 2075 -91 
Q 1284 -91 818 406 
Q 353 903 353 1747 
Q 353 2603 823 3093 
Q 1294 3584 2113 3584 
Q 2378 3584 2631 3529 
Q 2884 3475 3122 3366 
z
" transform="scale(0.015625)"/>
      <path id="DejaVuSans-6f" d="M 1959 3097 
Q 1497 3097 1228 2736 
Q 959 2375 959 1747 
Q 959 1119 1226 758 
Q 1494 397 1959 397 
Q 2419 397 2687 759 
Q 2956 1122 2956 1747 
Q 2956 2369 2687 2733 
Q 2419 3097 1959 3097 
z
M 1959 3584 
Q 2709 3584 3137 3096 
Q 3566 2609 3566 1747 
Q 3566 888 3137 398 
Q 2709 -91 1959 -91 
Q 1206 -91 779 398 
Q 353 888 353 1747 
Q 353 2609 779 3096 
Q 1206 3584 1959 3584 
z
" transform="scale(0.015625)"/>
      <path id="DejaVuSans-73" d="M 2834 3397 
L 2834 2853 
Q 2591 2978 2328 3040 
Q 2066 3103 1784 3103 
Q 1356 3103 1142 2972 
Q 928 2841 928 2578 
Q 928 2378 1081 2264 
Q 1234 2150 1697 2047 
L 1894 2003 
Q 2506 1872 2764 1633 
Q 3022 1394 3022 966 
Q 3022 478 2636 193 
Q 2250 -91 1575 -91 
Q 1294 -91 989 -36 
Q 684 19 347 128 
L 347 722 
Q 666 556 975 473 
Q 1284 391 1588 391 
Q 1994 391 2212 530 
Q 2431 669 2431 922 
Q 2431 1156 2273 1281 
Q 2116 1406 1581 1522 
L 1381 1569 
Q 847 1681 609 1914 
Q 372 2147 372 2553 
Q 372 3047 722 3315 
Q 1072 3584 1716 3584 
Q 2034 3584 2315 3537 
Q 2597 3491 2834 3397 
z
" transform="scale(0.015625)"/>
      <path id="DejaVuSans-75" d="M 544 1381 
L 544 3500 
L 1119 3500 
L 1119 1403 
Q 1119 906 1312 657 
Q 1506 409 1894 409 
Q 2359 409 2629 706 
Q 2900 1003 2900 1516 
L 2900 3500 
L 3475 3500 
L 3475 0 
L 2900 0 
L 2900 538 
Q 2691 219 2414 64 
Q 2138 -91 1772 -91 
Q 1169 -91 856 284 
Q 544 659 544 1381 
z
M 1991 3584 
L 1991 3584 
z
" transform="scale(0.015625)"/>
      <path id="DejaVuSans-72" d="M 2631 2963 
Q 2534 3019 2420 3045 
Q 2306 3072 2169 3072 
Q 1681 3072 1420 2755 
Q 1159 2438 1159 1844 
L 1159 0 
L 581 0 
L 581 3500 
L 1159 3500 
L 1159 2956 
Q 1341 3275 1631 3429 
Q 1922 3584 2338 3584 
Q 2397 3584 2469 3576 
Q 2541 3569 2628 3553 
L 2631 2963 
z
" transform="scale(0.015625)"/>
     </defs>
     <use xlink:href="#DejaVuSans-65"/>
     <use xlink:href="#DejaVuSans-6e" x="61.523438"/>
     <use xlink:href="#DejaVuSans-63" x="124.902344"/>
     <use xlink:href="#DejaVuSans-6c" x="179.882812"/>
     <use xlink:href="#DejaVuSans-6f" x="207.666016"/>
     <use xlink:href="#DejaVuSans-73" x="268.847656"/>
     <use xlink:href="#DejaVuSans-75" x="320.947266"/>
     <use xlink:href="#DejaVuSans-72" x="384.326172"/>
     <use xlink:href="#DejaVuSans-65" x="423.189453"/>
    </g>
   </g>
   <g id="text_12">
    <!-- Energy balance for multilayer insulation -->
    <g transform="translate(30.071562 16.318125)scale(0.12 -0.12)">
     <defs>
      <path id="DejaVuSans-45" d="M 628 4666 
L 3578 4666 
L 3578 4134 
L 1259 4134 
L 1259 2753 
L 3481 2753 
L 3481 2222 
L 1259 2222 
L 1259 531 
L 3634 531 
L 3634 0 
L 628 0 
L 628 4666 
z
" transform="scale(0.015625)"/>
      <path id="DejaVuSans-67" d="M 2906 1791 
Q 2906 2416 2648 2759 
Q 2391 3103 1925 3103 
Q 1463 3103 1205 2759 
Q 947 2416 947 1791 
Q 947 1169 1205 825 
Q 1463 481 1925 481 
Q 2391 481 2648 825 
Q 2906 1169 2906 1791 
z
M 3481 434 
Q 3481 -459 3084 -895 
Q 2688 -1331 1869 -1331 
Q 1566 -1331 1297 -1286 
Q 1028 -1241 775 -1147 
L 775 -588 
Q 1028 -725 1275 -790 
Q 1522 -856 1778 -856 
Q 2344 -856 2625 -561 
Q 2906 -266 2906 331 
L 2906 616 
Q 2728 306 2450 153 
Q 2172 0 1784 0 
Q 1141 0 747 490 
Q 353 981 353 1791 
Q 353 2603 747 3093 
Q 1141 3584 1784 3584 
Q 2172 3584 2450 3431 
Q 2728 3278 2906 2969 
L 2906 3500 
L 3481 3500 
L 3481 434 
z
" transform="scale(0.015625)"/>
      <path id="DejaVuSans-79" d="M 2059 -325 
Q 1816 -950 1584 -1140 
Q 1353 -1331 966 -1331 
L 506 -1331 
L 506 -850 
L 844 -850 
Q 1081 -850 1212 -737 
Q 1344 -625 1503 -206 
L 1606 56 
L 191 3500 
L 800 3500 
L 1894 763 
L 2988 3500 
L 3597 3500 
L 2059 -325 
z
" transform="scale(0.015625)"/>
      <path id="DejaVuSans-62" d="M 3116 1747 
Q 3116 2381 2855 2742 
Q 2594 3103 2138 3103 
Q 1681 3103 1420 2742 
Q 1159 2381 1159 1747 
Q 1159 1113 1420 752 
Q 1681 391 2138 391 
Q 2594 391 2855 752 
Q 3116 1113 3116 1747 
z
M 1159 2969 
Q 1341 3281 1617 3432 
Q 1894 3584 2278 3584 
Q 2916 3584 3314 3078 
Q 3713 2572 3713 1747 
Q 3713 922 3314 415 
Q 2916 -91 2278 -91 
Q 1894 -91 1617 61 
Q 1341 213 1159 525 
L 1159 0 
L 581 0 
L 581 4863 
L 1159 4863 
L 1159 2969 
z
" transform="scale(0.015625)"/>
      <path id="DejaVuSans-61" d="M 2194 1759 
Q 1497 1759 1228 1600 
Q 959 1441 959 1056 
Q 959 750 1161 570 
Q 1363 391 1709 391 
Q 2188 391 2477 730 
Q 2766 1069 2766 1631 
L 2766 1759 
L 2194 1759 
z
M 3341 1997 
L 3341 0 
L 2766 0 
L 2766 531 
Q 2569 213 2275 61 
Q 1981 -91 1556 -91 
Q 1019 -91 701 211 
Q 384 513 384 1019 
Q 384 1609 779 1909 
Q 1175 2209 1959 2209 
L 2766 2209 
L 2766 2266 
Q 2766 2663 2505 2880 
Q 2244 3097 1772 3097 
Q 1472 3097 1187 3025 
Q 903 2953 641 2809 
L 641 3341 
Q 956 3463 1253 3523 
Q 1550 3584 1831 3584 
Q 2591 3584 2966 3190 
Q 3341 2797 3341 1997 
z
" transform="scale(0.015625)"/>
      <path id="DejaVuSans-74" d="M 1172 4494 
L 1172 3500 
L 2356 3500 
L 2356 3053 
L 1172 3053 
L 1172 1153 
Q 1172 725 1289 603 
Q 1406 481 1766 481 
L 2356 481 
L 2356 0 
L 1766 0 
Q 1100 0 847 248 
Q 594 497 594 1153 
L 594 3053 
L 172 3053 
L 172 3500 
L 594 3500 
L 594 4494 
L 1172 4494 
z
" transform="scale(0.015625)"/>
     </defs>
     <use xlink:href="#DejaVuSans-45"/>
     <use xlink:href="#DejaVuSans-6e" x="63.183594"/>
     <use xlink:href="#DejaVuSans-65" x="126.5625"/>
     <use xlink:href="#DejaVuSans-72" x="188.085938"/>
     <use xlink:href="#DejaVuSans-67" x="227.449219"/>
     <use xlink:href="#DejaVuSans-79" x="290.925781"/>
     <use xlink:href="#DejaVuSans-20" x="350.105469"/>
     <use xlink:href="#DejaVuSans-62" x="381.892578"/>
     <use xlink:href="#DejaVuSans-61" x="445.369141"/>
     <use xlink:href="#DejaVuSans-6c" x="506.648438"/>
     <use xlink:href="#DejaVuSans-61" x="534.431641"/>
     <use xlink:href="#DejaVuSans-6e" x="595.710938"/>
     <use xlink:href="#DejaVuSans-63" x="659.089844"/>
     <use xlink:href="#DejaVuSans-65" x="714.070312"/>
     <use xlink:href="#DejaVuSans-20" x="775.59375"/>
     <use xlink:href="#DejaVuSans-66" x="807.380859"/>
     <use xlink:href="#DejaVuSans-6f" x="842.585938"/>
     <use xlink:href="#DejaVuSans-72" x="903.767578"/>
     <use xlink:href="#DejaVuSans-20" x="944.880859"/>
     <use xlink:href="#DejaVuSans-6d" x="976.667969"/>
     <use xlink:href="#DejaVuSans-75" x="1074.080078"/>
     <use xlink:href="#DejaVuSans-6c" x="1137.458984"/>
     <use xlink:href="#DejaVuSans-74" x="1165.242188"/>
     <use xlink:href="#DejaVuSans-69" x="1204.451172"/>
     <use xlink:href="#DejaVuSans-6c" x="1232.234375"/>
     <use xlink:href="#DejaVuSans-61" x="1260.017578"/>
     <use xlink:href="#DejaVuSans-79" x="1321.296875"/>
     <use xlink:href="#DejaVuSans-65" x="1380.476562"/>
     <use xlink:href="#DejaVuSans-72" x="1442"/>
     <use xlink:href="#DejaVuSans-20" x="1483.113281"/>
     <use xlink:href="#DejaVuSans-69" x="1514.900391"/>
     <use xlink:href="#DejaVuSans-6e" x="1542.683594"/>
     <use xlink:href="#DejaVuSans-73" x="1606.0625"/>
     <use xlink:href="#DejaVuSans-75" x="1658.162109"/>
     <use xlink:href="#DejaVuSans-6c" x="1721.541016"/>
     <use xlink:href="#DejaVuSans-61" x="1749.324219"/>
     <use xlink:href="#DejaVuSans-74" x="1810.603516"/>
     <use xlink:href="#DejaVuSans-69" x="1849.8125"/>
     <use xlink:href="#DejaVuSans-6f" x="1877.595703"/>
     <use xlink:href="#DejaVuSans-6e" x="1938.777344"/>
    </g>
   </g>
  </g>
 </g>
 <defs>
  <clipPath id="pc9c3b2267e">
   <rect x="10.7" y="22.318125" width="279" height="190.26"/>
  </clipPath>
 </defs>
</svg>
