<?xml version="1.0" encoding="utf-8" standalone="no"?>
<!DOCTYPE svg PUBLIC "-//W3C//DTD SVG 1.1//EN"
  "http://www.w3.org/Graphics/SVG/1.1/DTD/svg11.dtd">
<svg xmlns:xlink="http://www.w3.org/1999/xlink" width="500.565625pt" height="414.11625pt" viewBox="0 0 500.565625 414.11625" xmlns="http://www.w3.org/2000/svg" version="1.1">
 <metadata>
  <rdf:RDF xmlns:dc="http://purl.org/dc/elements/1.1/" xmlns:cc="http://creativecommons.org/ns#" xmlns:rdf="http://www.w3.org/1999/02/22-rdf-syntax-ns#">
   <cc:Work>
    <dc:type rdf:resource="http://purl.org/dc/dcmitype/StillImage"/>
    <dc:date>2024-06-21T16:02:15.231178</dc:date>
    <dc:format>image/svg+xml</dc:format>
    <dc:creator>
     <cc:Agent>
      <dc:title>Matplotlib v3.5.2, https://matplotlib.org/</dc:title>
     </cc:Agent>
    </dc:creator>
   </cc:Work>
  </rdf:RDF>
 </metadata>
 <defs>
  <style type="text/css">*{stroke-linejoin: round; stroke-linecap: butt}</style>
 </defs>
 <g id="figure_1">
  <g id="patch_1">
   <path d="M 0 414.11625 
L 500.565625 414.11625 
L 500.565625 0 
L 0 0 
z
" style="fill: #ffffff"/>
  </g>
  <g id="axes_1">
   <g id="patch_2">
    <path d="M 46.965625 198.654545 
L 249.874716 198.654545 
L 249.874716 50.4 
L 46.965625 50.4 
z
" style="fill: #ffffff"/>
   </g>
   <g id="matplotlib.axis_1">
    <g id="xtick_1">
     <g id="line2d_1">
      <path d="M 46.965625 198.654545 
L 46.965625 50.4 
" clip-path="url(#pc340cc9469)" style="fill: none; stroke: #b0b0b0; stroke-width: 0.8; stroke-linecap: square"/>
     </g>
     <g id="line2d_2">
      <defs>
       <path id="mb33454056f" d="M 0 0 
L 0 3.5 
" style="stroke: #000000; stroke-width: 0.8"/>
      </defs>
      <g>
       <use xlink:href="#mb33454056f" x="46.965625" y="198.654545" style="stroke: #000000; stroke-width: 0.8"/>
      </g>
     </g>
     <g id="text_1">
      <!-- 0 -->
      <g transform="translate(43.784375 213.252983)scale(0.1 -0.1)">
       <defs>
        <path id="DejaVuSans-30" d="M 2034 4250 
Q 1547 4250 1301 3770 
Q 1056 3291 1056 2328 
Q 1056 1369 1301 889 
Q 1547 409 2034 409 
Q 2525 409 2770 889 
Q 3016 1369 3016 2328 
Q 3016 3291 2770 3770 
Q 2525 4250 2034 4250 
z
M 2034 4750 
Q 2819 4750 3233 4129 
Q 3647 3509 3647 2328 
Q 3647 1150 3233 529 
Q 2819 -91 2034 -91 
Q 1250 -91 836 529 
Q 422 1150 422 2328 
Q 422 3509 836 4129 
Q 1250 4750 2034 4750 
z
" transform="scale(0.015625)"/>
       </defs>
       <use xlink:href="#DejaVuSans-30"/>
      </g>
     </g>
    </g>
    <g id="xtick_2">
     <g id="line2d_3">
      <path d="M 103.329261 198.654545 
L 103.329261 50.4 
" clip-path="url(#pc340cc9469)" style="fill: none; stroke: #b0b0b0; stroke-width: 0.8; stroke-linecap: square"/>
     </g>
     <g id="line2d_4">
      <g>
       <use xlink:href="#mb33454056f" x="103.329261" y="198.654545" style="stroke: #000000; stroke-width: 0.8"/>
      </g>
     </g>
     <g id="text_2">
      <!-- 100 -->
      <g transform="translate(93.785511 213.252983)scale(0.1 -0.1)">
       <defs>
        <path id="DejaVuSans-31" d="M 794 531 
L 1825 531 
L 1825 4091 
L 703 3866 
L 703 4441 
L 1819 4666 
L 2450 4666 
L 2450 531 
L 3481 531 
L 3481 0 
L 794 0 
L 794 531 
z
" transform="scale(0.015625)"/>
       </defs>
       <use xlink:href="#DejaVuSans-31"/>
       <use xlink:href="#DejaVuSans-30" x="63.623047"/>
       <use xlink:href="#DejaVuSans-30" x="127.246094"/>
      </g>
     </g>
    </g>
    <g id="xtick_3">
     <g id="line2d_5">
      <path d="M 159.692898 198.654545 
L 159.692898 50.4 
" clip-path="url(#pc340cc9469)" style="fill: none; stroke: #b0b0b0; stroke-width: 0.8; stroke-linecap: square"/>
     </g>
     <g id="line2d_6">
      <g>
       <use xlink:href="#mb33454056f" x="159.692898" y="198.654545" style="stroke: #000000; stroke-width: 0.8"/>
      </g>
     </g>
     <g id="text_3">
      <!-- 200 -->
      <g transform="translate(150.149148 213.252983)scale(0.1 -0.1)">
       <defs>
        <path id="DejaVuSans-32" d="M 1228 531 
L 3431 531 
L 3431 0 
L 469 0 
L 469 531 
Q 828 903 1448 1529 
Q 2069 2156 2228 2338 
Q 2531 2678 2651 2914 
Q 2772 3150 2772 3378 
Q 2772 3750 2511 3984 
Q 2250 4219 1831 4219 
Q 1534 4219 1204 4116 
Q 875 4013 500 3803 
L 500 4441 
Q 881 4594 1212 4672 
Q 1544 4750 1819 4750 
Q 2544 4750 2975 4387 
Q 3406 4025 3406 3419 
Q 3406 3131 3298 2873 
Q 3191 2616 2906 2266 
Q 2828 2175 2409 1742 
Q 1991 1309 1228 531 
z
" transform="scale(0.015625)"/>
       </defs>
       <use xlink:href="#DejaVuSans-32"/>
       <use xlink:href="#DejaVuSans-30" x="63.623047"/>
       <use xlink:href="#DejaVuSans-30" x="127.246094"/>
      </g>
     </g>
    </g>
    <g id="xtick_4">
     <g id="line2d_7">
      <path d="M 216.056534 198.654545 
L 216.056534 50.4 
" clip-path="url(#pc340cc9469)" style="fill: none; stroke: #b0b0b0; stroke-width: 0.8; stroke-linecap: square"/>
     </g>
     <g id="line2d_8">
      <g>
       <use xlink:href="#mb33454056f" x="216.056534" y="198.654545" style="stroke: #000000; stroke-width: 0.8"/>
      </g>
     </g>
     <g id="text_4">
      <!-- 300 -->
      <g transform="translate(206.512784 213.252983)scale(0.1 -0.1)">
       <defs>
        <path id="DejaVuSans-33" d="M 2597 2516 
Q 3050 2419 3304 2112 
Q 3559 1806 3559 1356 
Q 3559 666 3084 287 
Q 2609 -91 1734 -91 
Q 1441 -91 1130 -33 
Q 819 25 488 141 
L 488 750 
Q 750 597 1062 519 
Q 1375 441 1716 441 
Q 2309 441 2620 675 
Q 2931 909 2931 1356 
Q 2931 1769 2642 2001 
Q 2353 2234 1838 2234 
L 1294 2234 
L 1294 2753 
L 1863 2753 
Q 2328 2753 2575 2939 
Q 2822 3125 2822 3475 
Q 2822 3834 2567 4026 
Q 2313 4219 1838 4219 
Q 1578 4219 1281 4162 
Q 984 4106 628 3988 
L 628 4550 
Q 988 4650 1302 4700 
Q 1616 4750 1894 4750 
Q 2613 4750 3031 4423 
Q 3450 4097 3450 3541 
Q 3450 3153 3228 2886 
Q 3006 2619 2597 2516 
z
" transform="scale(0.015625)"/>
       </defs>
       <use xlink:href="#DejaVuSans-33"/>
       <use xlink:href="#DejaVuSans-30" x="63.623047"/>
       <use xlink:href="#DejaVuSans-30" x="127.246094"/>
      </g>
     </g>
    </g>
    <g id="text_5">
     <!-- orbit angle, theta (deg) -->
     <g transform="translate(89.996733 226.931108)scale(0.1 -0.1)">
      <defs>
       <path id="DejaVuSans-6f" d="M 1959 3097 
Q 1497 3097 1228 2736 
Q 959 2375 959 1747 
Q 959 1119 1226 758 
Q 1494 397 1959 397 
Q 2419 397 2687 759 
Q 2956 1122 2956 1747 
Q 2956 2369 2687 2733 
Q 2419 3097 1959 3097 
z
M 1959 3584 
Q 2709 3584 3137 3096 
Q 3566 2609 3566 1747 
Q 3566 888 3137 398 
Q 2709 -91 1959 -91 
Q 1206 -91 779 398 
Q 353 888 353 1747 
Q 353 2609 779 3096 
Q 1206 3584 1959 3584 
z
" transform="scale(0.015625)"/>
       <path id="DejaVuSans-72" d="M 2631 2963 
Q 2534 3019 2420 3045 
Q 2306 3072 2169 3072 
Q 1681 3072 1420 2755 
Q 1159 2438 1159 1844 
L 1159 0 
L 581 0 
L 581 3500 
L 1159 3500 
L 1159 2956 
Q 1341 3275 1631 3429 
Q 1922 3584 2338 3584 
Q 2397 3584 2469 3576 
Q 2541 3569 2628 3553 
L 2631 2963 
z
" transform="scale(0.015625)"/>
       <path id="DejaVuSans-62" d="M 3116 1747 
Q 3116 2381 2855 2742 
Q 2594 3103 2138 3103 
Q 1681 3103 1420 2742 
Q 1159 2381 1159 1747 
Q 1159 1113 1420 752 
Q 1681 391 2138 391 
Q 2594 391 2855 752 
Q 3116 1113 3116 1747 
z
M 1159 2969 
Q 1341 3281 1617 3432 
Q 1894 3584 2278 3584 
Q 2916 3584 3314 3078 
Q 3713 2572 3713 1747 
Q 3713 922 3314 415 
Q 2916 -91 2278 -91 
Q 1894 -91 1617 61 
Q 1341 213 1159 525 
L 1159 0 
L 581 0 
L 581 4863 
L 1159 4863 
L 1159 2969 
z
" transform="scale(0.015625)"/>
       <path id="DejaVuSans-69" d="M 603 3500 
L 1178 3500 
L 1178 0 
L 603 0 
L 603 3500 
z
M 603 4863 
L 1178 4863 
L 1178 4134 
L 603 4134 
L 603 4863 
z
" transform="scale(0.015625)"/>
       <path id="DejaVuSans-74" d="M 1172 4494 
L 1172 3500 
L 2356 3500 
L 2356 3053 
L 1172 3053 
L 1172 1153 
Q 1172 725 1289 603 
Q 1406 481 1766 481 
L 2356 481 
L 2356 0 
L 1766 0 
Q 1100 0 847 248 
Q 594 497 594 1153 
L 594 3053 
L 172 3053 
L 172 3500 
L 594 3500 
L 594 4494 
L 1172 4494 
z
" transform="scale(0.015625)"/>
       <path id="DejaVuSans-20" transform="scale(0.015625)"/>
       <path id="DejaVuSans-61" d="M 2194 1759 
Q 1497 1759 1228 1600 
Q 959 1441 959 1056 
Q 959 750 1161 570 
Q 1363 391 1709 391 
Q 2188 391 2477 730 
Q 2766 1069 2766 1631 
L 2766 1759 
L 2194 1759 
z
M 3341 1997 
L 3341 0 
L 2766 0 
L 2766 531 
Q 2569 213 2275 61 
Q 1981 -91 1556 -91 
Q 1019 -91 701 211 
Q 384 513 384 1019 
Q 384 1609 779 1909 
Q 1175 2209 1959 2209 
L 2766 2209 
L 2766 2266 
Q 2766 2663 2505 2880 
Q 2244 3097 1772 3097 
Q 1472 3097 1187 3025 
Q 903 2953 641 2809 
L 641 3341 
Q 956 3463 1253 3523 
Q 1550 3584 1831 3584 
Q 2591 3584 2966 3190 
Q 3341 2797 3341 1997 
z
" transform="scale(0.015625)"/>
       <path id="DejaVuSans-6e" d="M 3513 2113 
L 3513 0 
L 2938 0 
L 2938 2094 
Q 2938 2591 2744 2837 
Q 2550 3084 2163 3084 
Q 1697 3084 1428 2787 
Q 1159 2491 1159 1978 
L 1159 0 
L 581 0 
L 581 3500 
L 1159 3500 
L 1159 2956 
Q 1366 3272 1645 3428 
Q 1925 3584 2291 3584 
Q 2894 3584 3203 3211 
Q 3513 2838 3513 2113 
z
" transform="scale(0.015625)"/>
       <path id="DejaVuSans-67" d="M 2906 1791 
Q 2906 2416 2648 2759 
Q 2391 3103 1925 3103 
Q 1463 3103 1205 2759 
Q 947 2416 947 1791 
Q 947 1169 1205 825 
Q 1463 481 1925 481 
Q 2391 481 2648 825 
Q 2906 1169 2906 1791 
z
M 3481 434 
Q 3481 -459 3084 -895 
Q 2688 -1331 1869 -1331 
Q 1566 -1331 1297 -1286 
Q 1028 -1241 775 -1147 
L 775 -588 
Q 1028 -725 1275 -790 
Q 1522 -856 1778 -856 
Q 2344 -856 2625 -561 
Q 2906 -266 2906 331 
L 2906 616 
Q 2728 306 2450 153 
Q 2172 0 1784 0 
Q 1141 0 747 490 
Q 353 981 353 1791 
Q 353 2603 747 3093 
Q 1141 3584 1784 3584 
Q 2172 3584 2450 3431 
Q 2728 3278 2906 2969 
L 2906 3500 
L 3481 3500 
L 3481 434 
z
" transform="scale(0.015625)"/>
       <path id="DejaVuSans-6c" d="M 603 4863 
L 1178 4863 
L 1178 0 
L 603 0 
L 603 4863 
z
" transform="scale(0.015625)"/>
       <path id="DejaVuSans-65" d="M 3597 1894 
L 3597 1613 
L 953 1613 
Q 991 1019 1311 708 
Q 1631 397 2203 397 
Q 2534 397 2845 478 
Q 3156 559 3463 722 
L 3463 178 
Q 3153 47 2828 -22 
Q 2503 -91 2169 -91 
Q 1331 -91 842 396 
Q 353 884 353 1716 
Q 353 2575 817 3079 
Q 1281 3584 2069 3584 
Q 2775 3584 3186 3129 
Q 3597 2675 3597 1894 
z
M 3022 2063 
Q 3016 2534 2758 2815 
Q 2500 3097 2075 3097 
Q 1594 3097 1305 2825 
Q 1016 2553 972 2059 
L 3022 2063 
z
" transform="scale(0.015625)"/>
       <path id="DejaVuSans-2c" d="M 750 794 
L 1409 794 
L 1409 256 
L 897 -744 
L 494 -744 
L 750 256 
L 750 794 
z
" transform="scale(0.015625)"/>
       <path id="DejaVuSans-68" d="M 3513 2113 
L 3513 0 
L 2938 0 
L 2938 2094 
Q 2938 2591 2744 2837 
Q 2550 3084 2163 3084 
Q 1697 3084 1428 2787 
Q 1159 2491 1159 1978 
L 1159 0 
L 581 0 
L 581 4863 
L 1159 4863 
L 1159 2956 
Q 1366 3272 1645 3428 
Q 1925 3584 2291 3584 
Q 2894 3584 3203 3211 
Q 3513 2838 3513 2113 
z
" transform="scale(0.015625)"/>
       <path id="DejaVuSans-28" d="M 1984 4856 
Q 1566 4138 1362 3434 
Q 1159 2731 1159 2009 
Q 1159 1288 1364 580 
Q 1569 -128 1984 -844 
L 1484 -844 
Q 1016 -109 783 600 
Q 550 1309 550 2009 
Q 550 2706 781 3412 
Q 1013 4119 1484 4856 
L 1984 4856 
z
" transform="scale(0.015625)"/>
       <path id="DejaVuSans-64" d="M 2906 2969 
L 2906 4863 
L 3481 4863 
L 3481 0 
L 2906 0 
L 2906 525 
Q 2725 213 2448 61 
Q 2172 -91 1784 -91 
Q 1150 -91 751 415 
Q 353 922 353 1747 
Q 353 2572 751 3078 
Q 1150 3584 1784 3584 
Q 2172 3584 2448 3432 
Q 2725 3281 2906 2969 
z
M 947 1747 
Q 947 1113 1208 752 
Q 1469 391 1925 391 
Q 2381 391 2643 752 
Q 2906 1113 2906 1747 
Q 2906 2381 2643 2742 
Q 2381 3103 1925 3103 
Q 1469 3103 1208 2742 
Q 947 2381 947 1747 
z
" transform="scale(0.015625)"/>
       <path id="DejaVuSans-29" d="M 513 4856 
L 1013 4856 
Q 1481 4119 1714 3412 
Q 1947 2706 1947 2009 
Q 1947 1309 1714 600 
Q 1481 -109 1013 -844 
L 513 -844 
Q 928 -128 1133 580 
Q 1338 1288 1338 2009 
Q 1338 2731 1133 3434 
Q 928 4138 513 4856 
z
" transform="scale(0.015625)"/>
      </defs>
      <use xlink:href="#DejaVuSans-6f"/>
      <use xlink:href="#DejaVuSans-72" x="61.181641"/>
      <use xlink:href="#DejaVuSans-62" x="102.294922"/>
      <use xlink:href="#DejaVuSans-69" x="165.771484"/>
      <use xlink:href="#DejaVuSans-74" x="193.554688"/>
      <use xlink:href="#DejaVuSans-20" x="232.763672"/>
      <use xlink:href="#DejaVuSans-61" x="264.550781"/>
      <use xlink:href="#DejaVuSans-6e" x="325.830078"/>
      <use xlink:href="#DejaVuSans-67" x="389.208984"/>
      <use xlink:href="#DejaVuSans-6c" x="452.685547"/>
      <use xlink:href="#DejaVuSans-65" x="480.46875"/>
      <use xlink:href="#DejaVuSans-2c" x="541.992188"/>
      <use xlink:href="#DejaVuSans-20" x="573.779297"/>
      <use xlink:href="#DejaVuSans-74" x="605.566406"/>
      <use xlink:href="#DejaVuSans-68" x="644.775391"/>
      <use xlink:href="#DejaVuSans-65" x="708.154297"/>
      <use xlink:href="#DejaVuSans-74" x="769.677734"/>
      <use xlink:href="#DejaVuSans-61" x="808.886719"/>
      <use xlink:href="#DejaVuSans-20" x="870.166016"/>
      <use xlink:href="#DejaVuSans-28" x="901.953125"/>
      <use xlink:href="#DejaVuSans-64" x="940.966797"/>
      <use xlink:href="#DejaVuSans-65" x="1004.443359"/>
      <use xlink:href="#DejaVuSans-67" x="1065.966797"/>
      <use xlink:href="#DejaVuSans-29" x="1129.443359"/>
     </g>
    </g>
   </g>
   <g id="matplotlib.axis_2">
    <g id="ytick_1">
     <g id="line2d_9">
      <path d="M 46.965625 198.654545 
L 249.874716 198.654545 
" clip-path="url(#pc340cc9469)" style="fill: none; stroke: #b0b0b0; stroke-width: 0.8; stroke-linecap: square"/>
     </g>
     <g id="line2d_10">
      <defs>
       <path id="m5574992cf1" d="M 0 0 
L -3.5 0 
" style="stroke: #000000; stroke-width: 0.8"/>
      </defs>
      <g>
       <use xlink:href="#m5574992cf1" x="46.965625" y="198.654545" style="stroke: #000000; stroke-width: 0.8"/>
      </g>
     </g>
     <g id="text_6">
      <!-- 0 -->
      <g transform="translate(33.603125 202.453764)scale(0.1 -0.1)">
       <use xlink:href="#DejaVuSans-30"/>
      </g>
     </g>
    </g>
    <g id="ytick_2">
     <g id="line2d_11">
      <path d="M 46.965625 177.475325 
L 249.874716 177.475325 
" clip-path="url(#pc340cc9469)" style="fill: none; stroke: #b0b0b0; stroke-width: 0.8; stroke-linecap: square"/>
     </g>
     <g id="line2d_12">
      <g>
       <use xlink:href="#m5574992cf1" x="46.965625" y="177.475325" style="stroke: #000000; stroke-width: 0.8"/>
      </g>
     </g>
     <g id="text_7">
      <!-- 100 -->
      <g transform="translate(20.878125 181.274543)scale(0.1 -0.1)">
       <use xlink:href="#DejaVuSans-31"/>
       <use xlink:href="#DejaVuSans-30" x="63.623047"/>
       <use xlink:href="#DejaVuSans-30" x="127.246094"/>
      </g>
     </g>
    </g>
    <g id="ytick_3">
     <g id="line2d_13">
      <path d="M 46.965625 156.296104 
L 249.874716 156.296104 
" clip-path="url(#pc340cc9469)" style="fill: none; stroke: #b0b0b0; stroke-width: 0.8; stroke-linecap: square"/>
     </g>
     <g id="line2d_14">
      <g>
       <use xlink:href="#m5574992cf1" x="46.965625" y="156.296104" style="stroke: #000000; stroke-width: 0.8"/>
      </g>
     </g>
     <g id="text_8">
      <!-- 200 -->
      <g transform="translate(20.878125 160.095323)scale(0.1 -0.1)">
       <use xlink:href="#DejaVuSans-32"/>
       <use xlink:href="#DejaVuSans-30" x="63.623047"/>
       <use xlink:href="#DejaVuSans-30" x="127.246094"/>
      </g>
     </g>
    </g>
    <g id="ytick_4">
     <g id="line2d_15">
      <path d="M 46.965625 135.116883 
L 249.874716 135.116883 
" clip-path="url(#pc340cc9469)" style="fill: none; stroke: #b0b0b0; stroke-width: 0.8; stroke-linecap: square"/>
     </g>
     <g id="line2d_16">
      <g>
       <use xlink:href="#m5574992cf1" x="46.965625" y="135.116883" style="stroke: #000000; stroke-width: 0.8"/>
      </g>
     </g>
     <g id="text_9">
      <!-- 300 -->
      <g transform="translate(20.878125 138.916102)scale(0.1 -0.1)">
       <use xlink:href="#DejaVuSans-33"/>
       <use xlink:href="#DejaVuSans-30" x="63.623047"/>
       <use xlink:href="#DejaVuSans-30" x="127.246094"/>
      </g>
     </g>
    </g>
    <g id="ytick_5">
     <g id="line2d_17">
      <path d="M 46.965625 113.937662 
L 249.874716 113.937662 
" clip-path="url(#pc340cc9469)" style="fill: none; stroke: #b0b0b0; stroke-width: 0.8; stroke-linecap: square"/>
     </g>
     <g id="line2d_18">
      <g>
       <use xlink:href="#m5574992cf1" x="46.965625" y="113.937662" style="stroke: #000000; stroke-width: 0.8"/>
      </g>
     </g>
     <g id="text_10">
      <!-- 400 -->
      <g transform="translate(20.878125 117.736881)scale(0.1 -0.1)">
       <defs>
        <path id="DejaVuSans-34" d="M 2419 4116 
L 825 1625 
L 2419 1625 
L 2419 4116 
z
M 2253 4666 
L 3047 4666 
L 3047 1625 
L 3713 1625 
L 3713 1100 
L 3047 1100 
L 3047 0 
L 2419 0 
L 2419 1100 
L 313 1100 
L 313 1709 
L 2253 4666 
z
" transform="scale(0.015625)"/>
       </defs>
       <use xlink:href="#DejaVuSans-34"/>
       <use xlink:href="#DejaVuSans-30" x="63.623047"/>
       <use xlink:href="#DejaVuSans-30" x="127.246094"/>
      </g>
     </g>
    </g>
    <g id="ytick_6">
     <g id="line2d_19">
      <path d="M 46.965625 92.758442 
L 249.874716 92.758442 
" clip-path="url(#pc340cc9469)" style="fill: none; stroke: #b0b0b0; stroke-width: 0.8; stroke-linecap: square"/>
     </g>
     <g id="line2d_20">
      <g>
       <use xlink:href="#m5574992cf1" x="46.965625" y="92.758442" style="stroke: #000000; stroke-width: 0.8"/>
      </g>
     </g>
     <g id="text_11">
      <!-- 500 -->
      <g transform="translate(20.878125 96.55766)scale(0.1 -0.1)">
       <defs>
        <path id="DejaVuSans-35" d="M 691 4666 
L 3169 4666 
L 3169 4134 
L 1269 4134 
L 1269 2991 
Q 1406 3038 1543 3061 
Q 1681 3084 1819 3084 
Q 2600 3084 3056 2656 
Q 3513 2228 3513 1497 
Q 3513 744 3044 326 
Q 2575 -91 1722 -91 
Q 1428 -91 1123 -41 
Q 819 9 494 109 
L 494 744 
Q 775 591 1075 516 
Q 1375 441 1709 441 
Q 2250 441 2565 725 
Q 2881 1009 2881 1497 
Q 2881 1984 2565 2268 
Q 2250 2553 1709 2553 
Q 1456 2553 1204 2497 
Q 953 2441 691 2322 
L 691 4666 
z
" transform="scale(0.015625)"/>
       </defs>
       <use xlink:href="#DejaVuSans-35"/>
       <use xlink:href="#DejaVuSans-30" x="63.623047"/>
       <use xlink:href="#DejaVuSans-30" x="127.246094"/>
      </g>
     </g>
    </g>
    <g id="ytick_7">
     <g id="line2d_21">
      <path d="M 46.965625 71.579221 
L 249.874716 71.579221 
" clip-path="url(#pc340cc9469)" style="fill: none; stroke: #b0b0b0; stroke-width: 0.8; stroke-linecap: square"/>
     </g>
     <g id="line2d_22">
      <g>
       <use xlink:href="#m5574992cf1" x="46.965625" y="71.579221" style="stroke: #000000; stroke-width: 0.8"/>
      </g>
     </g>
     <g id="text_12">
      <!-- 600 -->
      <g transform="translate(20.878125 75.37844)scale(0.1 -0.1)">
       <defs>
        <path id="DejaVuSans-36" d="M 2113 2584 
Q 1688 2584 1439 2293 
Q 1191 2003 1191 1497 
Q 1191 994 1439 701 
Q 1688 409 2113 409 
Q 2538 409 2786 701 
Q 3034 994 3034 1497 
Q 3034 2003 2786 2293 
Q 2538 2584 2113 2584 
z
M 3366 4563 
L 3366 3988 
Q 3128 4100 2886 4159 
Q 2644 4219 2406 4219 
Q 1781 4219 1451 3797 
Q 1122 3375 1075 2522 
Q 1259 2794 1537 2939 
Q 1816 3084 2150 3084 
Q 2853 3084 3261 2657 
Q 3669 2231 3669 1497 
Q 3669 778 3244 343 
Q 2819 -91 2113 -91 
Q 1303 -91 875 529 
Q 447 1150 447 2328 
Q 447 3434 972 4092 
Q 1497 4750 2381 4750 
Q 2619 4750 2861 4703 
Q 3103 4656 3366 4563 
z
" transform="scale(0.015625)"/>
       </defs>
       <use xlink:href="#DejaVuSans-36"/>
       <use xlink:href="#DejaVuSans-30" x="63.623047"/>
       <use xlink:href="#DejaVuSans-30" x="127.246094"/>
      </g>
     </g>
    </g>
    <g id="ytick_8">
     <g id="line2d_23">
      <path d="M 46.965625 50.4 
L 249.874716 50.4 
" clip-path="url(#pc340cc9469)" style="fill: none; stroke: #b0b0b0; stroke-width: 0.8; stroke-linecap: square"/>
     </g>
     <g id="line2d_24">
      <g>
       <use xlink:href="#m5574992cf1" x="46.965625" y="50.4" style="stroke: #000000; stroke-width: 0.8"/>
      </g>
     </g>
     <g id="text_13">
      <!-- 700 -->
      <g transform="translate(20.878125 54.199219)scale(0.1 -0.1)">
       <defs>
        <path id="DejaVuSans-37" d="M 525 4666 
L 3525 4666 
L 3525 4397 
L 1831 0 
L 1172 0 
L 2766 4134 
L 525 4134 
L 525 4666 
z
" transform="scale(0.015625)"/>
       </defs>
       <use xlink:href="#DejaVuSans-37"/>
       <use xlink:href="#DejaVuSans-30" x="63.623047"/>
       <use xlink:href="#DejaVuSans-30" x="127.246094"/>
      </g>
     </g>
    </g>
    <g id="text_14">
     <!-- Incident flux (w/m^2) -->
     <g transform="translate(14.798438 179.060866)rotate(-90)scale(0.1 -0.1)">
      <defs>
       <path id="DejaVuSans-49" d="M 628 4666 
L 1259 4666 
L 1259 0 
L 628 0 
L 628 4666 
z
" transform="scale(0.015625)"/>
       <path id="DejaVuSans-63" d="M 3122 3366 
L 3122 2828 
Q 2878 2963 2633 3030 
Q 2388 3097 2138 3097 
Q 1578 3097 1268 2742 
Q 959 2388 959 1747 
Q 959 1106 1268 751 
Q 1578 397 2138 397 
Q 2388 397 2633 464 
Q 2878 531 3122 666 
L 3122 134 
Q 2881 22 2623 -34 
Q 2366 -91 2075 -91 
Q 1284 -91 818 406 
Q 353 903 353 1747 
Q 353 2603 823 3093 
Q 1294 3584 2113 3584 
Q 2378 3584 2631 3529 
Q 2884 3475 3122 3366 
z
" transform="scale(0.015625)"/>
       <path id="DejaVuSans-66" d="M 2375 4863 
L 2375 4384 
L 1825 4384 
Q 1516 4384 1395 4259 
Q 1275 4134 1275 3809 
L 1275 3500 
L 2222 3500 
L 2222 3053 
L 1275 3053 
L 1275 0 
L 697 0 
L 697 3053 
L 147 3053 
L 147 3500 
L 697 3500 
L 697 3744 
Q 697 4328 969 4595 
Q 1241 4863 1831 4863 
L 2375 4863 
z
" transform="scale(0.015625)"/>
       <path id="DejaVuSans-75" d="M 544 1381 
L 544 3500 
L 1119 3500 
L 1119 1403 
Q 1119 906 1312 657 
Q 1506 409 1894 409 
Q 2359 409 2629 706 
Q 2900 1003 2900 1516 
L 2900 3500 
L 3475 3500 
L 3475 0 
L 2900 0 
L 2900 538 
Q 2691 219 2414 64 
Q 2138 -91 1772 -91 
Q 1169 -91 856 284 
Q 544 659 544 1381 
z
M 1991 3584 
L 1991 3584 
z
" transform="scale(0.015625)"/>
       <path id="DejaVuSans-78" d="M 3513 3500 
L 2247 1797 
L 3578 0 
L 2900 0 
L 1881 1375 
L 863 0 
L 184 0 
L 1544 1831 
L 300 3500 
L 978 3500 
L 1906 2253 
L 2834 3500 
L 3513 3500 
z
" transform="scale(0.015625)"/>
       <path id="DejaVuSans-77" d="M 269 3500 
L 844 3500 
L 1563 769 
L 2278 3500 
L 2956 3500 
L 3675 769 
L 4391 3500 
L 4966 3500 
L 4050 0 
L 3372 0 
L 2619 2869 
L 1863 0 
L 1184 0 
L 269 3500 
z
" transform="scale(0.015625)"/>
       <path id="DejaVuSans-2f" d="M 1625 4666 
L 2156 4666 
L 531 -594 
L 0 -594 
L 1625 4666 
z
" transform="scale(0.015625)"/>
       <path id="DejaVuSans-6d" d="M 3328 2828 
Q 3544 3216 3844 3400 
Q 4144 3584 4550 3584 
Q 5097 3584 5394 3201 
Q 5691 2819 5691 2113 
L 5691 0 
L 5113 0 
L 5113 2094 
Q 5113 2597 4934 2840 
Q 4756 3084 4391 3084 
Q 3944 3084 3684 2787 
Q 3425 2491 3425 1978 
L 3425 0 
L 2847 0 
L 2847 2094 
Q 2847 2600 2669 2842 
Q 2491 3084 2119 3084 
Q 1678 3084 1418 2786 
Q 1159 2488 1159 1978 
L 1159 0 
L 581 0 
L 581 3500 
L 1159 3500 
L 1159 2956 
Q 1356 3278 1631 3431 
Q 1906 3584 2284 3584 
Q 2666 3584 2933 3390 
Q 3200 3197 3328 2828 
z
" transform="scale(0.015625)"/>
       <path id="DejaVuSans-5e" d="M 2988 4666 
L 4684 2925 
L 4056 2925 
L 2681 4159 
L 1306 2925 
L 678 2925 
L 2375 4666 
L 2988 4666 
z
" transform="scale(0.015625)"/>
      </defs>
      <use xlink:href="#DejaVuSans-49"/>
      <use xlink:href="#DejaVuSans-6e" x="29.492188"/>
      <use xlink:href="#DejaVuSans-63" x="92.871094"/>
      <use xlink:href="#DejaVuSans-69" x="147.851562"/>
      <use xlink:href="#DejaVuSans-64" x="175.634766"/>
      <use xlink:href="#DejaVuSans-65" x="239.111328"/>
      <use xlink:href="#DejaVuSans-6e" x="300.634766"/>
      <use xlink:href="#DejaVuSans-74" x="364.013672"/>
      <use xlink:href="#DejaVuSans-20" x="403.222656"/>
      <use xlink:href="#DejaVuSans-66" x="435.009766"/>
      <use xlink:href="#DejaVuSans-6c" x="470.214844"/>
      <use xlink:href="#DejaVuSans-75" x="497.998047"/>
      <use xlink:href="#DejaVuSans-78" x="561.376953"/>
      <use xlink:href="#DejaVuSans-20" x="620.556641"/>
      <use xlink:href="#DejaVuSans-28" x="652.34375"/>
      <use xlink:href="#DejaVuSans-77" x="691.357422"/>
      <use xlink:href="#DejaVuSans-2f" x="773.144531"/>
      <use xlink:href="#DejaVuSans-6d" x="806.835938"/>
      <use xlink:href="#DejaVuSans-5e" x="904.248047"/>
      <use xlink:href="#DejaVuSans-32" x="988.037109"/>
      <use xlink:href="#DejaVuSans-29" x="1051.660156"/>
     </g>
    </g>
   </g>
   <g id="line2d_25">
    <path d="M 46.965625 198.654545 
L 49.783807 198.654545 
L 52.601989 198.654545 
L 55.42017 198.654545 
L 58.238352 198.654545 
L 61.056534 198.654545 
L 63.874716 198.654545 
L 66.692898 198.654545 
L 69.51108 198.654545 
L 72.329261 198.654545 
L 75.147443 198.654545 
L 77.965625 198.654545 
L 80.783807 198.654545 
L 83.601989 198.654545 
L 86.42017 198.654545 
L 89.238352 198.654545 
L 92.056534 198.654545 
L 94.874716 198.654545 
L 97.692898 198.654545 
L 100.51108 173.421219 
L 103.329261 148.379934 
L 106.147443 123.721269 
L 108.965625 198.654545 
L 111.783807 198.654545 
L 114.601989 198.654545 
L 117.42017 198.654545 
L 120.238352 198.654545 
L 123.056534 198.654545 
L 125.874716 198.654545 
L 128.692898 198.654545 
L 131.51108 198.654545 
L 134.329261 198.654545 
L 137.147443 198.654545 
L 139.965625 198.654545 
L 142.783807 198.654545 
L 145.601989 198.654545 
L 148.42017 198.654545 
L 151.238352 198.654545 
L 154.056534 198.654545 
L 156.874716 198.654545 
L 159.692898 198.654545 
L 162.51108 198.654545 
L 165.329261 198.654545 
L 168.147443 198.654545 
L 170.965625 198.654545 
L 173.783807 198.654545 
L 176.601989 198.654545 
L 179.42017 198.654545 
L 182.238352 198.654545 
L 185.056534 198.654545 
L 187.874716 198.654545 
L 190.692898 123.721269 
L 193.51108 148.379934 
L 196.329261 173.421219 
L 199.147443 198.654545 
L 201.965625 198.654545 
L 204.783807 198.654545 
L 207.601989 198.654545 
L 210.42017 198.654545 
L 213.238352 198.654545 
L 216.056534 198.654545 
L 218.874716 198.654545 
L 221.692898 198.654545 
L 224.51108 198.654545 
L 227.329261 198.654545 
L 230.147443 198.654545 
L 232.965625 198.654545 
L 235.783807 198.654545 
L 238.601989 198.654545 
L 241.42017 198.654545 
L 244.238352 198.654545 
L 247.056534 198.654545 
L 249.874716 198.654545 
" clip-path="url(#pc340cc9469)" style="fill: none; stroke: #0000ff; stroke-width: 1.5; stroke-linecap: square"/>
   </g>
   <g id="line2d_26">
    <path d="M 46.965625 121.928606 
L 49.783807 122.220572 
L 52.601989 123.094246 
L 55.42017 124.542979 
L 58.238352 126.555747 
L 61.056534 129.117229 
L 63.874716 132.207933 
L 66.692898 135.804336 
L 69.51108 139.879066 
L 72.329261 144.401114 
L 75.147443 149.336063 
L 77.965625 154.646355 
L 80.783807 160.291576 
L 83.601989 166.228762 
L 86.42017 172.412729 
L 89.238352 178.796411 
L 92.056534 185.331226 
L 94.874716 191.967439 
L 97.692898 198.654545 
L 100.51108 198.654545 
L 103.329261 198.654545 
L 106.147443 198.654545 
L 108.965625 198.654545 
L 111.783807 198.654545 
L 114.601989 198.654545 
L 117.42017 198.654545 
L 120.238352 198.654545 
L 123.056534 198.654545 
L 125.874716 198.654545 
L 128.692898 198.654545 
L 131.51108 198.654545 
L 134.329261 198.654545 
L 137.147443 198.654545 
L 139.965625 198.654545 
L 142.783807 198.654545 
L 145.601989 198.654545 
L 148.42017 198.654545 
L 151.238352 198.654545 
L 154.056534 198.654545 
L 156.874716 198.654545 
L 159.692898 198.654545 
L 162.51108 198.654545 
L 165.329261 198.654545 
L 168.147443 198.654545 
L 170.965625 198.654545 
L 173.783807 198.654545 
L 176.601989 198.654545 
L 179.42017 198.654545 
L 182.238352 198.654545 
L 185.056534 198.654545 
L 187.874716 198.654545 
L 190.692898 198.654545 
L 193.51108 198.654545 
L 196.329261 198.654545 
L 199.147443 198.654545 
L 201.965625 191.967439 
L 204.783807 185.331226 
L 207.601989 178.796411 
L 210.42017 172.412729 
L 213.238352 166.228762 
L 216.056534 160.291576 
L 218.874716 154.646355 
L 221.692898 149.336063 
L 224.51108 144.401114 
L 227.329261 139.879066 
L 230.147443 135.804336 
L 232.965625 132.207933 
L 235.783807 129.117229 
L 238.601989 126.555747 
L 241.42017 124.542979 
L 244.238352 123.094246 
L 247.056534 122.220572 
L 249.874716 121.928606 
" clip-path="url(#pc340cc9469)" style="fill: none; stroke: #ff0000; stroke-width: 1.5; stroke-linecap: square"/>
   </g>
   <g id="line2d_27">
    <path d="M 46.965625 153.897748 
L 49.783807 153.897748 
L 52.601989 153.897748 
L 55.42017 153.897748 
L 58.238352 153.897748 
L 61.056534 153.897748 
L 63.874716 153.897748 
L 66.692898 153.897748 
L 69.51108 153.897748 
L 72.329261 153.897748 
L 75.147443 153.897748 
L 77.965625 153.897748 
L 80.783807 153.897748 
L 83.601989 153.897748 
L 86.42017 153.897748 
L 89.238352 153.897748 
L 92.056534 153.897748 
L 94.874716 153.897748 
L 97.692898 153.897748 
L 100.51108 153.897748 
L 103.329261 153.897748 
L 106.147443 153.897748 
L 108.965625 153.897748 
L 111.783807 153.897748 
L 114.601989 153.897748 
L 117.42017 153.897748 
L 120.238352 153.897748 
L 123.056534 153.897748 
L 125.874716 153.897748 
L 128.692898 153.897748 
L 131.51108 153.897748 
L 134.329261 153.897748 
L 137.147443 153.897748 
L 139.965625 153.897748 
L 142.783807 153.897748 
L 145.601989 153.897748 
L 148.42017 153.897748 
L 151.238352 153.897748 
L 154.056534 153.897748 
L 156.874716 153.897748 
L 159.692898 153.897748 
L 162.51108 153.897748 
L 165.329261 153.897748 
L 168.147443 153.897748 
L 170.965625 153.897748 
L 173.783807 153.897748 
L 176.601989 153.897748 
L 179.42017 153.897748 
L 182.238352 153.897748 
L 185.056534 153.897748 
L 187.874716 153.897748 
L 190.692898 153.897748 
L 193.51108 153.897748 
L 196.329261 153.897748 
L 199.147443 153.897748 
L 201.965625 153.897748 
L 204.783807 153.897748 
L 207.601989 153.897748 
L 210.42017 153.897748 
L 213.238352 153.897748 
L 216.056534 153.897748 
L 218.874716 153.897748 
L 221.692898 153.897748 
L 224.51108 153.897748 
L 227.329261 153.897748 
L 230.147443 153.897748 
L 232.965625 153.897748 
L 235.783807 153.897748 
L 238.601989 153.897748 
L 241.42017 153.897748 
L 244.238352 153.897748 
L 247.056534 153.897748 
L 249.874716 153.897748 
" clip-path="url(#pc340cc9469)" style="fill: none; stroke: #008000; stroke-width: 1.5; stroke-linecap: square"/>
   </g>
   <g id="patch_3">
    <path d="M 46.965625 198.654545 
L 46.965625 50.4 
" style="fill: none; stroke: #000000; stroke-width: 0.8; stroke-linejoin: miter; stroke-linecap: square"/>
   </g>
   <g id="patch_4">
    <path d="M 249.874716 198.654545 
L 249.874716 50.4 
" style="fill: none; stroke: #000000; stroke-width: 0.8; stroke-linejoin: miter; stroke-linecap: square"/>
   </g>
   <g id="patch_5">
    <path d="M 46.965625 198.654545 
L 249.874716 198.654545 
" style="fill: none; stroke: #000000; stroke-width: 0.8; stroke-linejoin: miter; stroke-linecap: square"/>
   </g>
   <g id="patch_6">
    <path d="M 46.965625 50.4 
L 249.874716 50.4 
" style="fill: none; stroke: #000000; stroke-width: 0.8; stroke-linejoin: miter; stroke-linecap: square"/>
   </g>
   <g id="text_15">
    <!-- beta=0deg -->
    <g transform="translate(49.783807 71.579221)scale(0.1 -0.1)">
     <defs>
      <path id="DejaVuSans-3d" d="M 678 2906 
L 4684 2906 
L 4684 2381 
L 678 2381 
L 678 2906 
z
M 678 1631 
L 4684 1631 
L 4684 1100 
L 678 1100 
L 678 1631 
z
" transform="scale(0.015625)"/>
     </defs>
     <use xlink:href="#DejaVuSans-62"/>
     <use xlink:href="#DejaVuSans-65" x="63.476562"/>
     <use xlink:href="#DejaVuSans-74" x="125"/>
     <use xlink:href="#DejaVuSans-61" x="164.208984"/>
     <use xlink:href="#DejaVuSans-3d" x="225.488281"/>
     <use xlink:href="#DejaVuSans-30" x="309.277344"/>
     <use xlink:href="#DejaVuSans-64" x="372.900391"/>
     <use xlink:href="#DejaVuSans-65" x="436.376953"/>
     <use xlink:href="#DejaVuSans-67" x="497.900391"/>
    </g>
   </g>
  </g>
  <g id="axes_2">
   <g id="patch_7">
    <path d="M 290.456534 198.654545 
L 493.365625 198.654545 
L 493.365625 50.4 
L 290.456534 50.4 
z
" style="fill: #ffffff"/>
   </g>
   <g id="matplotlib.axis_3">
    <g id="xtick_5">
     <g id="line2d_28">
      <path d="M 290.456534 198.654545 
L 290.456534 50.4 
" clip-path="url(#p42a9d61e5b)" style="fill: none; stroke: #b0b0b0; stroke-width: 0.8; stroke-linecap: square"/>
     </g>
     <g id="line2d_29">
      <g>
       <use xlink:href="#mb33454056f" x="290.456534" y="198.654545" style="stroke: #000000; stroke-width: 0.8"/>
      </g>
     </g>
     <g id="text_16">
      <!-- 0 -->
      <g transform="translate(287.275284 213.252983)scale(0.1 -0.1)">
       <use xlink:href="#DejaVuSans-30"/>
      </g>
     </g>
    </g>
    <g id="xtick_6">
     <g id="line2d_30">
      <path d="M 346.82017 198.654545 
L 346.82017 50.4 
" clip-path="url(#p42a9d61e5b)" style="fill: none; stroke: #b0b0b0; stroke-width: 0.8; stroke-linecap: square"/>
     </g>
     <g id="line2d_31">
      <g>
       <use xlink:href="#mb33454056f" x="346.82017" y="198.654545" style="stroke: #000000; stroke-width: 0.8"/>
      </g>
     </g>
     <g id="text_17">
      <!-- 100 -->
      <g transform="translate(337.27642 213.252983)scale(0.1 -0.1)">
       <use xlink:href="#DejaVuSans-31"/>
       <use xlink:href="#DejaVuSans-30" x="63.623047"/>
       <use xlink:href="#DejaVuSans-30" x="127.246094"/>
      </g>
     </g>
    </g>
    <g id="xtick_7">
     <g id="line2d_32">
      <path d="M 403.183807 198.654545 
L 403.183807 50.4 
" clip-path="url(#p42a9d61e5b)" style="fill: none; stroke: #b0b0b0; stroke-width: 0.8; stroke-linecap: square"/>
     </g>
     <g id="line2d_33">
      <g>
       <use xlink:href="#mb33454056f" x="403.183807" y="198.654545" style="stroke: #000000; stroke-width: 0.8"/>
      </g>
     </g>
     <g id="text_18">
      <!-- 200 -->
      <g transform="translate(393.640057 213.252983)scale(0.1 -0.1)">
       <use xlink:href="#DejaVuSans-32"/>
       <use xlink:href="#DejaVuSans-30" x="63.623047"/>
       <use xlink:href="#DejaVuSans-30" x="127.246094"/>
      </g>
     </g>
    </g>
    <g id="xtick_8">
     <g id="line2d_34">
      <path d="M 459.547443 198.654545 
L 459.547443 50.4 
" clip-path="url(#p42a9d61e5b)" style="fill: none; stroke: #b0b0b0; stroke-width: 0.8; stroke-linecap: square"/>
     </g>
     <g id="line2d_35">
      <g>
       <use xlink:href="#mb33454056f" x="459.547443" y="198.654545" style="stroke: #000000; stroke-width: 0.8"/>
      </g>
     </g>
     <g id="text_19">
      <!-- 300 -->
      <g transform="translate(450.003693 213.252983)scale(0.1 -0.1)">
       <use xlink:href="#DejaVuSans-33"/>
       <use xlink:href="#DejaVuSans-30" x="63.623047"/>
       <use xlink:href="#DejaVuSans-30" x="127.246094"/>
      </g>
     </g>
    </g>
    <g id="text_20">
     <!-- orbit angle, theta (deg) -->
     <g transform="translate(333.487642 226.931108)scale(0.1 -0.1)">
      <use xlink:href="#DejaVuSans-6f"/>
      <use xlink:href="#DejaVuSans-72" x="61.181641"/>
      <use xlink:href="#DejaVuSans-62" x="102.294922"/>
      <use xlink:href="#DejaVuSans-69" x="165.771484"/>
      <use xlink:href="#DejaVuSans-74" x="193.554688"/>
      <use xlink:href="#DejaVuSans-20" x="232.763672"/>
      <use xlink:href="#DejaVuSans-61" x="264.550781"/>
      <use xlink:href="#DejaVuSans-6e" x="325.830078"/>
      <use xlink:href="#DejaVuSans-67" x="389.208984"/>
      <use xlink:href="#DejaVuSans-6c" x="452.685547"/>
      <use xlink:href="#DejaVuSans-65" x="480.46875"/>
      <use xlink:href="#DejaVuSans-2c" x="541.992188"/>
      <use xlink:href="#DejaVuSans-20" x="573.779297"/>
      <use xlink:href="#DejaVuSans-74" x="605.566406"/>
      <use xlink:href="#DejaVuSans-68" x="644.775391"/>
      <use xlink:href="#DejaVuSans-65" x="708.154297"/>
      <use xlink:href="#DejaVuSans-74" x="769.677734"/>
      <use xlink:href="#DejaVuSans-61" x="808.886719"/>
      <use xlink:href="#DejaVuSans-20" x="870.166016"/>
      <use xlink:href="#DejaVuSans-28" x="901.953125"/>
      <use xlink:href="#DejaVuSans-64" x="940.966797"/>
      <use xlink:href="#DejaVuSans-65" x="1004.443359"/>
      <use xlink:href="#DejaVuSans-67" x="1065.966797"/>
      <use xlink:href="#DejaVuSans-29" x="1129.443359"/>
     </g>
    </g>
   </g>
   <g id="matplotlib.axis_4">
    <g id="ytick_9">
     <g id="line2d_36">
      <path d="M 290.456534 198.654545 
L 493.365625 198.654545 
" clip-path="url(#p42a9d61e5b)" style="fill: none; stroke: #b0b0b0; stroke-width: 0.8; stroke-linecap: square"/>
     </g>
     <g id="line2d_37">
      <g>
       <use xlink:href="#m5574992cf1" x="290.456534" y="198.654545" style="stroke: #000000; stroke-width: 0.8"/>
      </g>
     </g>
     <g id="text_21">
      <!-- 0 -->
      <g transform="translate(277.094034 202.453764)scale(0.1 -0.1)">
       <use xlink:href="#DejaVuSans-30"/>
      </g>
     </g>
    </g>
    <g id="ytick_10">
     <g id="line2d_38">
      <path d="M 290.456534 177.475325 
L 493.365625 177.475325 
" clip-path="url(#p42a9d61e5b)" style="fill: none; stroke: #b0b0b0; stroke-width: 0.8; stroke-linecap: square"/>
     </g>
     <g id="line2d_39">
      <g>
       <use xlink:href="#m5574992cf1" x="290.456534" y="177.475325" style="stroke: #000000; stroke-width: 0.8"/>
      </g>
     </g>
     <g id="text_22">
      <!-- 100 -->
      <g transform="translate(264.369034 181.274543)scale(0.1 -0.1)">
       <use xlink:href="#DejaVuSans-31"/>
       <use xlink:href="#DejaVuSans-30" x="63.623047"/>
       <use xlink:href="#DejaVuSans-30" x="127.246094"/>
      </g>
     </g>
    </g>
    <g id="ytick_11">
     <g id="line2d_40">
      <path d="M 290.456534 156.296104 
L 493.365625 156.296104 
" clip-path="url(#p42a9d61e5b)" style="fill: none; stroke: #b0b0b0; stroke-width: 0.8; stroke-linecap: square"/>
     </g>
     <g id="line2d_41">
      <g>
       <use xlink:href="#m5574992cf1" x="290.456534" y="156.296104" style="stroke: #000000; stroke-width: 0.8"/>
      </g>
     </g>
     <g id="text_23">
      <!-- 200 -->
      <g transform="translate(264.369034 160.095323)scale(0.1 -0.1)">
       <use xlink:href="#DejaVuSans-32"/>
       <use xlink:href="#DejaVuSans-30" x="63.623047"/>
       <use xlink:href="#DejaVuSans-30" x="127.246094"/>
      </g>
     </g>
    </g>
    <g id="ytick_12">
     <g id="line2d_42">
      <path d="M 290.456534 135.116883 
L 493.365625 135.116883 
" clip-path="url(#p42a9d61e5b)" style="fill: none; stroke: #b0b0b0; stroke-width: 0.8; stroke-linecap: square"/>
     </g>
     <g id="line2d_43">
      <g>
       <use xlink:href="#m5574992cf1" x="290.456534" y="135.116883" style="stroke: #000000; stroke-width: 0.8"/>
      </g>
     </g>
     <g id="text_24">
      <!-- 300 -->
      <g transform="translate(264.369034 138.916102)scale(0.1 -0.1)">
       <use xlink:href="#DejaVuSans-33"/>
       <use xlink:href="#DejaVuSans-30" x="63.623047"/>
       <use xlink:href="#DejaVuSans-30" x="127.246094"/>
      </g>
     </g>
    </g>
    <g id="ytick_13">
     <g id="line2d_44">
      <path d="M 290.456534 113.937662 
L 493.365625 113.937662 
" clip-path="url(#p42a9d61e5b)" style="fill: none; stroke: #b0b0b0; stroke-width: 0.8; stroke-linecap: square"/>
     </g>
     <g id="line2d_45">
      <g>
       <use xlink:href="#m5574992cf1" x="290.456534" y="113.937662" style="stroke: #000000; stroke-width: 0.8"/>
      </g>
     </g>
     <g id="text_25">
      <!-- 400 -->
      <g transform="translate(264.369034 117.736881)scale(0.1 -0.1)">
       <use xlink:href="#DejaVuSans-34"/>
       <use xlink:href="#DejaVuSans-30" x="63.623047"/>
       <use xlink:href="#DejaVuSans-30" x="127.246094"/>
      </g>
     </g>
    </g>
    <g id="ytick_14">
     <g id="line2d_46">
      <path d="M 290.456534 92.758442 
L 493.365625 92.758442 
" clip-path="url(#p42a9d61e5b)" style="fill: none; stroke: #b0b0b0; stroke-width: 0.8; stroke-linecap: square"/>
     </g>
     <g id="line2d_47">
      <g>
       <use xlink:href="#m5574992cf1" x="290.456534" y="92.758442" style="stroke: #000000; stroke-width: 0.8"/>
      </g>
     </g>
     <g id="text_26">
      <!-- 500 -->
      <g transform="translate(264.369034 96.55766)scale(0.1 -0.1)">
       <use xlink:href="#DejaVuSans-35"/>
       <use xlink:href="#DejaVuSans-30" x="63.623047"/>
       <use xlink:href="#DejaVuSans-30" x="127.246094"/>
      </g>
     </g>
    </g>
    <g id="ytick_15">
     <g id="line2d_48">
      <path d="M 290.456534 71.579221 
L 493.365625 71.579221 
" clip-path="url(#p42a9d61e5b)" style="fill: none; stroke: #b0b0b0; stroke-width: 0.8; stroke-linecap: square"/>
     </g>
     <g id="line2d_49">
      <g>
       <use xlink:href="#m5574992cf1" x="290.456534" y="71.579221" style="stroke: #000000; stroke-width: 0.8"/>
      </g>
     </g>
     <g id="text_27">
      <!-- 600 -->
      <g transform="translate(264.369034 75.37844)scale(0.1 -0.1)">
       <use xlink:href="#DejaVuSans-36"/>
       <use xlink:href="#DejaVuSans-30" x="63.623047"/>
       <use xlink:href="#DejaVuSans-30" x="127.246094"/>
      </g>
     </g>
    </g>
    <g id="ytick_16">
     <g id="line2d_50">
      <path d="M 290.456534 50.4 
L 493.365625 50.4 
" clip-path="url(#p42a9d61e5b)" style="fill: none; stroke: #b0b0b0; stroke-width: 0.8; stroke-linecap: square"/>
     </g>
     <g id="line2d_51">
      <g>
       <use xlink:href="#m5574992cf1" x="290.456534" y="50.4" style="stroke: #000000; stroke-width: 0.8"/>
      </g>
     </g>
     <g id="text_28">
      <!-- 700 -->
      <g transform="translate(264.369034 54.199219)scale(0.1 -0.1)">
       <use xlink:href="#DejaVuSans-37"/>
       <use xlink:href="#DejaVuSans-30" x="63.623047"/>
       <use xlink:href="#DejaVuSans-30" x="127.246094"/>
      </g>
     </g>
    </g>
   </g>
   <g id="line2d_52">
    <path d="M 290.456534 198.654545 
L 293.274716 198.654545 
L 296.092898 198.654545 
L 298.91108 198.654545 
L 301.729261 198.654545 
L 304.547443 198.654545 
L 307.365625 198.654545 
L 310.183807 198.654545 
L 313.001989 198.654545 
L 315.82017 198.654545 
L 318.638352 198.654545 
L 321.456534 198.654545 
L 324.274716 198.654545 
L 327.092898 198.654545 
L 329.91108 198.654545 
L 332.729261 198.654545 
L 335.547443 198.654545 
L 338.365625 198.654545 
L 341.183807 198.654545 
L 344.001989 186.037882 
L 346.82017 173.51724 
L 349.638352 161.187907 
L 352.456534 149.143718 
L 355.274716 137.476337 
L 358.092898 126.274558 
L 360.91108 115.623635 
L 363.729261 105.604628 
L 366.547443 198.654545 
L 369.365625 198.654545 
L 372.183807 198.654545 
L 375.001989 198.654545 
L 377.82017 198.654545 
L 380.638352 198.654545 
L 383.456534 198.654545 
L 386.274716 198.654545 
L 389.092898 198.654545 
L 391.91108 198.654545 
L 394.729261 198.654545 
L 397.547443 198.654545 
L 400.365625 198.654545 
L 403.183807 198.654545 
L 406.001989 198.654545 
L 408.82017 198.654545 
L 411.638352 198.654545 
L 414.456534 198.654545 
L 417.274716 198.654545 
L 420.092898 105.604628 
L 422.91108 115.623635 
L 425.729261 126.274558 
L 428.547443 137.476337 
L 431.365625 149.143718 
L 434.183807 161.187907 
L 437.001989 173.51724 
L 439.82017 186.037882 
L 442.638352 198.654545 
L 445.456534 198.654545 
L 448.274716 198.654545 
L 451.092898 198.654545 
L 453.91108 198.654545 
L 456.729261 198.654545 
L 459.547443 198.654545 
L 462.365625 198.654545 
L 465.183807 198.654545 
L 468.001989 198.654545 
L 470.82017 198.654545 
L 473.638352 198.654545 
L 476.456534 198.654545 
L 479.274716 198.654545 
L 482.092898 198.654545 
L 484.91108 198.654545 
L 487.729261 198.654545 
L 490.547443 198.654545 
L 493.365625 198.654545 
" clip-path="url(#p42a9d61e5b)" style="fill: none; stroke: #0000ff; stroke-width: 1.5; stroke-linecap: square"/>
   </g>
   <g id="line2d_53">
    <path d="M 290.456534 160.291576 
L 293.274716 160.437559 
L 296.092898 160.874396 
L 298.91108 161.598762 
L 301.729261 162.605146 
L 304.547443 163.885887 
L 307.365625 165.431239 
L 310.183807 167.229441 
L 313.001989 169.266806 
L 315.82017 171.52783 
L 318.638352 173.995304 
L 321.456534 176.65045 
L 324.274716 179.473061 
L 327.092898 182.441654 
L 329.91108 185.533637 
L 332.729261 188.725478 
L 335.547443 191.992886 
L 338.365625 195.310992 
L 341.183807 198.654545 
L 344.001989 198.654545 
L 346.82017 198.654545 
L 349.638352 198.654545 
L 352.456534 198.654545 
L 355.274716 198.654545 
L 358.092898 198.654545 
L 360.91108 198.654545 
L 363.729261 198.654545 
L 366.547443 198.654545 
L 369.365625 198.654545 
L 372.183807 198.654545 
L 375.001989 198.654545 
L 377.82017 198.654545 
L 380.638352 198.654545 
L 383.456534 198.654545 
L 386.274716 198.654545 
L 389.092898 198.654545 
L 391.91108 198.654545 
L 394.729261 198.654545 
L 397.547443 198.654545 
L 400.365625 198.654545 
L 403.183807 198.654545 
L 406.001989 198.654545 
L 408.82017 198.654545 
L 411.638352 198.654545 
L 414.456534 198.654545 
L 417.274716 198.654545 
L 420.092898 198.654545 
L 422.91108 198.654545 
L 425.729261 198.654545 
L 428.547443 198.654545 
L 431.365625 198.654545 
L 434.183807 198.654545 
L 437.001989 198.654545 
L 439.82017 198.654545 
L 442.638352 198.654545 
L 445.456534 195.310992 
L 448.274716 191.992886 
L 451.092898 188.725478 
L 453.91108 185.533637 
L 456.729261 182.441654 
L 459.547443 179.473061 
L 462.365625 176.65045 
L 465.183807 173.995304 
L 468.001989 171.52783 
L 470.82017 169.266806 
L 473.638352 167.229441 
L 476.456534 165.431239 
L 479.274716 163.885887 
L 482.092898 162.605146 
L 484.91108 161.598762 
L 487.729261 160.874396 
L 490.547443 160.437559 
L 493.365625 160.291576 
" clip-path="url(#p42a9d61e5b)" style="fill: none; stroke: #ff0000; stroke-width: 1.5; stroke-linecap: square"/>
   </g>
   <g id="line2d_54">
    <path d="M 290.456534 153.897748 
L 293.274716 153.897748 
L 296.092898 153.897748 
L 298.91108 153.897748 
L 301.729261 153.897748 
L 304.547443 153.897748 
L 307.365625 153.897748 
L 310.183807 153.897748 
L 313.001989 153.897748 
L 315.82017 153.897748 
L 318.638352 153.897748 
L 321.456534 153.897748 
L 324.274716 153.897748 
L 327.092898 153.897748 
L 329.91108 153.897748 
L 332.729261 153.897748 
L 335.547443 153.897748 
L 338.365625 153.897748 
L 341.183807 153.897748 
L 344.001989 153.897748 
L 346.82017 153.897748 
L 349.638352 153.897748 
L 352.456534 153.897748 
L 355.274716 153.897748 
L 358.092898 153.897748 
L 360.91108 153.897748 
L 363.729261 153.897748 
L 366.547443 153.897748 
L 369.365625 153.897748 
L 372.183807 153.897748 
L 375.001989 153.897748 
L 377.82017 153.897748 
L 380.638352 153.897748 
L 383.456534 153.897748 
L 386.274716 153.897748 
L 389.092898 153.897748 
L 391.91108 153.897748 
L 394.729261 153.897748 
L 397.547443 153.897748 
L 400.365625 153.897748 
L 403.183807 153.897748 
L 406.001989 153.897748 
L 408.82017 153.897748 
L 411.638352 153.897748 
L 414.456534 153.897748 
L 417.274716 153.897748 
L 420.092898 153.897748 
L 422.91108 153.897748 
L 425.729261 153.897748 
L 428.547443 153.897748 
L 431.365625 153.897748 
L 434.183807 153.897748 
L 437.001989 153.897748 
L 439.82017 153.897748 
L 442.638352 153.897748 
L 445.456534 153.897748 
L 448.274716 153.897748 
L 451.092898 153.897748 
L 453.91108 153.897748 
L 456.729261 153.897748 
L 459.547443 153.897748 
L 462.365625 153.897748 
L 465.183807 153.897748 
L 468.001989 153.897748 
L 470.82017 153.897748 
L 473.638352 153.897748 
L 476.456534 153.897748 
L 479.274716 153.897748 
L 482.092898 153.897748 
L 484.91108 153.897748 
L 487.729261 153.897748 
L 490.547443 153.897748 
L 493.365625 153.897748 
" clip-path="url(#p42a9d61e5b)" style="fill: none; stroke: #008000; stroke-width: 1.5; stroke-linecap: square"/>
   </g>
   <g id="patch_8">
    <path d="M 290.456534 198.654545 
L 290.456534 50.4 
" style="fill: none; stroke: #000000; stroke-width: 0.8; stroke-linejoin: miter; stroke-linecap: square"/>
   </g>
   <g id="patch_9">
    <path d="M 493.365625 198.654545 
L 493.365625 50.4 
" style="fill: none; stroke: #000000; stroke-width: 0.8; stroke-linejoin: miter; stroke-linecap: square"/>
   </g>
   <g id="patch_10">
    <path d="M 290.456534 198.654545 
L 493.365625 198.654545 
" style="fill: none; stroke: #000000; stroke-width: 0.8; stroke-linejoin: miter; stroke-linecap: square"/>
   </g>
   <g id="patch_11">
    <path d="M 290.456534 50.4 
L 493.365625 50.4 
" style="fill: none; stroke: #000000; stroke-width: 0.8; stroke-linejoin: miter; stroke-linecap: square"/>
   </g>
   <g id="text_29">
    <!-- beta=60deg -->
    <g transform="translate(293.274716 71.579221)scale(0.1 -0.1)">
     <use xlink:href="#DejaVuSans-62"/>
     <use xlink:href="#DejaVuSans-65" x="63.476562"/>
     <use xlink:href="#DejaVuSans-74" x="125"/>
     <use xlink:href="#DejaVuSans-61" x="164.208984"/>
     <use xlink:href="#DejaVuSans-3d" x="225.488281"/>
     <use xlink:href="#DejaVuSans-36" x="309.277344"/>
     <use xlink:href="#DejaVuSans-30" x="372.900391"/>
     <use xlink:href="#DejaVuSans-64" x="436.523438"/>
     <use xlink:href="#DejaVuSans-65" x="500"/>
     <use xlink:href="#DejaVuSans-67" x="561.523438"/>
    </g>
   </g>
   <g id="legend_1">
    <g id="patch_12">
     <path d="M 400.948437 102.434375 
L 486.365625 102.434375 
Q 488.365625 102.434375 488.365625 100.434375 
L 488.365625 57.4 
Q 488.365625 55.4 486.365625 55.4 
L 400.948437 55.4 
Q 398.948437 55.4 398.948437 57.4 
L 398.948437 100.434375 
Q 398.948437 102.434375 400.948437 102.434375 
z
" style="fill: #ffffff; opacity: 0.8; stroke: #cccccc; stroke-linejoin: miter"/>
    </g>
    <g id="line2d_55">
     <path d="M 402.948437 63.498437 
L 412.948437 63.498437 
L 422.948437 63.498437 
" style="fill: none; stroke: #0000ff; stroke-width: 1.5; stroke-linecap: square"/>
    </g>
    <g id="text_30">
     <!-- Solar -->
     <g transform="translate(430.948437 66.998437)scale(0.1 -0.1)">
      <defs>
       <path id="DejaVuSans-53" d="M 3425 4513 
L 3425 3897 
Q 3066 4069 2747 4153 
Q 2428 4238 2131 4238 
Q 1616 4238 1336 4038 
Q 1056 3838 1056 3469 
Q 1056 3159 1242 3001 
Q 1428 2844 1947 2747 
L 2328 2669 
Q 3034 2534 3370 2195 
Q 3706 1856 3706 1288 
Q 3706 609 3251 259 
Q 2797 -91 1919 -91 
Q 1588 -91 1214 -16 
Q 841 59 441 206 
L 441 856 
Q 825 641 1194 531 
Q 1563 422 1919 422 
Q 2459 422 2753 634 
Q 3047 847 3047 1241 
Q 3047 1584 2836 1778 
Q 2625 1972 2144 2069 
L 1759 2144 
Q 1053 2284 737 2584 
Q 422 2884 422 3419 
Q 422 4038 858 4394 
Q 1294 4750 2059 4750 
Q 2388 4750 2728 4690 
Q 3069 4631 3425 4513 
z
" transform="scale(0.015625)"/>
      </defs>
      <use xlink:href="#DejaVuSans-53"/>
      <use xlink:href="#DejaVuSans-6f" x="63.476562"/>
      <use xlink:href="#DejaVuSans-6c" x="124.658203"/>
      <use xlink:href="#DejaVuSans-61" x="152.441406"/>
      <use xlink:href="#DejaVuSans-72" x="213.720703"/>
     </g>
    </g>
    <g id="line2d_56">
     <path d="M 402.948437 78.176562 
L 412.948437 78.176562 
L 422.948437 78.176562 
" style="fill: none; stroke: #ff0000; stroke-width: 1.5; stroke-linecap: square"/>
    </g>
    <g id="text_31">
     <!-- Albedo -->
     <g transform="translate(430.948437 81.676562)scale(0.1 -0.1)">
      <defs>
       <path id="DejaVuSans-41" d="M 2188 4044 
L 1331 1722 
L 3047 1722 
L 2188 4044 
z
M 1831 4666 
L 2547 4666 
L 4325 0 
L 3669 0 
L 3244 1197 
L 1141 1197 
L 716 0 
L 50 0 
L 1831 4666 
z
" transform="scale(0.015625)"/>
      </defs>
      <use xlink:href="#DejaVuSans-41"/>
      <use xlink:href="#DejaVuSans-6c" x="68.408203"/>
      <use xlink:href="#DejaVuSans-62" x="96.191406"/>
      <use xlink:href="#DejaVuSans-65" x="159.667969"/>
      <use xlink:href="#DejaVuSans-64" x="221.191406"/>
      <use xlink:href="#DejaVuSans-6f" x="284.667969"/>
     </g>
    </g>
    <g id="line2d_57">
     <path d="M 402.948437 92.854687 
L 412.948437 92.854687 
L 422.948437 92.854687 
" style="fill: none; stroke: #008000; stroke-width: 1.5; stroke-linecap: square"/>
    </g>
    <g id="text_32">
     <!-- Earth glow -->
     <g transform="translate(430.948437 96.354687)scale(0.1 -0.1)">
      <defs>
       <path id="DejaVuSans-45" d="M 628 4666 
L 3578 4666 
L 3578 4134 
L 1259 4134 
L 1259 2753 
L 3481 2753 
L 3481 2222 
L 1259 2222 
L 1259 531 
L 3634 531 
L 3634 0 
L 628 0 
L 628 4666 
z
" transform="scale(0.015625)"/>
      </defs>
      <use xlink:href="#DejaVuSans-45"/>
      <use xlink:href="#DejaVuSans-61" x="63.183594"/>
      <use xlink:href="#DejaVuSans-72" x="124.462891"/>
      <use xlink:href="#DejaVuSans-74" x="165.576172"/>
      <use xlink:href="#DejaVuSans-68" x="204.785156"/>
      <use xlink:href="#DejaVuSans-20" x="268.164062"/>
      <use xlink:href="#DejaVuSans-67" x="299.951172"/>
      <use xlink:href="#DejaVuSans-6c" x="363.427734"/>
      <use xlink:href="#DejaVuSans-6f" x="391.210938"/>
      <use xlink:href="#DejaVuSans-77" x="452.392578"/>
     </g>
    </g>
   </g>
  </g>
  <g id="axes_3">
   <g id="patch_13">
    <path d="M 46.965625 376.56 
L 249.874716 376.56 
L 249.874716 228.305455 
L 46.965625 228.305455 
z
" style="fill: #ffffff"/>
   </g>
   <g id="matplotlib.axis_5">
    <g id="xtick_9">
     <g id="line2d_58">
      <path d="M 46.965625 376.56 
L 46.965625 228.305455 
" clip-path="url(#pe9c898d410)" style="fill: none; stroke: #b0b0b0; stroke-width: 0.8; stroke-linecap: square"/>
     </g>
     <g id="line2d_59">
      <g>
       <use xlink:href="#mb33454056f" x="46.965625" y="376.56" style="stroke: #000000; stroke-width: 0.8"/>
      </g>
     </g>
     <g id="text_33">
      <!-- 0 -->
      <g transform="translate(43.784375 391.158437)scale(0.1 -0.1)">
       <use xlink:href="#DejaVuSans-30"/>
      </g>
     </g>
    </g>
    <g id="xtick_10">
     <g id="line2d_60">
      <path d="M 103.329261 376.56 
L 103.329261 228.305455 
" clip-path="url(#pe9c898d410)" style="fill: none; stroke: #b0b0b0; stroke-width: 0.8; stroke-linecap: square"/>
     </g>
     <g id="line2d_61">
      <g>
       <use xlink:href="#mb33454056f" x="103.329261" y="376.56" style="stroke: #000000; stroke-width: 0.8"/>
      </g>
     </g>
     <g id="text_34">
      <!-- 100 -->
      <g transform="translate(93.785511 391.158437)scale(0.1 -0.1)">
       <use xlink:href="#DejaVuSans-31"/>
       <use xlink:href="#DejaVuSans-30" x="63.623047"/>
       <use xlink:href="#DejaVuSans-30" x="127.246094"/>
      </g>
     </g>
    </g>
    <g id="xtick_11">
     <g id="line2d_62">
      <path d="M 159.692898 376.56 
L 159.692898 228.305455 
" clip-path="url(#pe9c898d410)" style="fill: none; stroke: #b0b0b0; stroke-width: 0.8; stroke-linecap: square"/>
     </g>
     <g id="line2d_63">
      <g>
       <use xlink:href="#mb33454056f" x="159.692898" y="376.56" style="stroke: #000000; stroke-width: 0.8"/>
      </g>
     </g>
     <g id="text_35">
      <!-- 200 -->
      <g transform="translate(150.149148 391.158437)scale(0.1 -0.1)">
       <use xlink:href="#DejaVuSans-32"/>
       <use xlink:href="#DejaVuSans-30" x="63.623047"/>
       <use xlink:href="#DejaVuSans-30" x="127.246094"/>
      </g>
     </g>
    </g>
    <g id="xtick_12">
     <g id="line2d_64">
      <path d="M 216.056534 376.56 
L 216.056534 228.305455 
" clip-path="url(#pe9c898d410)" style="fill: none; stroke: #b0b0b0; stroke-width: 0.8; stroke-linecap: square"/>
     </g>
     <g id="line2d_65">
      <g>
       <use xlink:href="#mb33454056f" x="216.056534" y="376.56" style="stroke: #000000; stroke-width: 0.8"/>
      </g>
     </g>
     <g id="text_36">
      <!-- 300 -->
      <g transform="translate(206.512784 391.158437)scale(0.1 -0.1)">
       <use xlink:href="#DejaVuSans-33"/>
       <use xlink:href="#DejaVuSans-30" x="63.623047"/>
       <use xlink:href="#DejaVuSans-30" x="127.246094"/>
      </g>
     </g>
    </g>
    <g id="text_37">
     <!-- orbit angle, theta (deg) -->
     <g transform="translate(89.996733 404.836562)scale(0.1 -0.1)">
      <use xlink:href="#DejaVuSans-6f"/>
      <use xlink:href="#DejaVuSans-72" x="61.181641"/>
      <use xlink:href="#DejaVuSans-62" x="102.294922"/>
      <use xlink:href="#DejaVuSans-69" x="165.771484"/>
      <use xlink:href="#DejaVuSans-74" x="193.554688"/>
      <use xlink:href="#DejaVuSans-20" x="232.763672"/>
      <use xlink:href="#DejaVuSans-61" x="264.550781"/>
      <use xlink:href="#DejaVuSans-6e" x="325.830078"/>
      <use xlink:href="#DejaVuSans-67" x="389.208984"/>
      <use xlink:href="#DejaVuSans-6c" x="452.685547"/>
      <use xlink:href="#DejaVuSans-65" x="480.46875"/>
      <use xlink:href="#DejaVuSans-2c" x="541.992188"/>
      <use xlink:href="#DejaVuSans-20" x="573.779297"/>
      <use xlink:href="#DejaVuSans-74" x="605.566406"/>
      <use xlink:href="#DejaVuSans-68" x="644.775391"/>
      <use xlink:href="#DejaVuSans-65" x="708.154297"/>
      <use xlink:href="#DejaVuSans-74" x="769.677734"/>
      <use xlink:href="#DejaVuSans-61" x="808.886719"/>
      <use xlink:href="#DejaVuSans-20" x="870.166016"/>
      <use xlink:href="#DejaVuSans-28" x="901.953125"/>
      <use xlink:href="#DejaVuSans-64" x="940.966797"/>
      <use xlink:href="#DejaVuSans-65" x="1004.443359"/>
      <use xlink:href="#DejaVuSans-67" x="1065.966797"/>
      <use xlink:href="#DejaVuSans-29" x="1129.443359"/>
     </g>
    </g>
   </g>
   <g id="matplotlib.axis_6">
    <g id="ytick_17">
     <g id="line2d_66">
      <path d="M 46.965625 376.56 
L 249.874716 376.56 
" clip-path="url(#pe9c898d410)" style="fill: none; stroke: #b0b0b0; stroke-width: 0.8; stroke-linecap: square"/>
     </g>
     <g id="line2d_67">
      <g>
       <use xlink:href="#m5574992cf1" x="46.965625" y="376.56" style="stroke: #000000; stroke-width: 0.8"/>
      </g>
     </g>
     <g id="text_38">
      <!-- 0 -->
      <g transform="translate(33.603125 380.359219)scale(0.1 -0.1)">
       <use xlink:href="#DejaVuSans-30"/>
      </g>
     </g>
    </g>
    <g id="ytick_18">
     <g id="line2d_68">
      <path d="M 46.965625 355.380779 
L 249.874716 355.380779 
" clip-path="url(#pe9c898d410)" style="fill: none; stroke: #b0b0b0; stroke-width: 0.8; stroke-linecap: square"/>
     </g>
     <g id="line2d_69">
      <g>
       <use xlink:href="#m5574992cf1" x="46.965625" y="355.380779" style="stroke: #000000; stroke-width: 0.8"/>
      </g>
     </g>
     <g id="text_39">
      <!-- 100 -->
      <g transform="translate(20.878125 359.179998)scale(0.1 -0.1)">
       <use xlink:href="#DejaVuSans-31"/>
       <use xlink:href="#DejaVuSans-30" x="63.623047"/>
       <use xlink:href="#DejaVuSans-30" x="127.246094"/>
      </g>
     </g>
    </g>
    <g id="ytick_19">
     <g id="line2d_70">
      <path d="M 46.965625 334.201558 
L 249.874716 334.201558 
" clip-path="url(#pe9c898d410)" style="fill: none; stroke: #b0b0b0; stroke-width: 0.8; stroke-linecap: square"/>
     </g>
     <g id="line2d_71">
      <g>
       <use xlink:href="#m5574992cf1" x="46.965625" y="334.201558" style="stroke: #000000; stroke-width: 0.8"/>
      </g>
     </g>
     <g id="text_40">
      <!-- 200 -->
      <g transform="translate(20.878125 338.000777)scale(0.1 -0.1)">
       <use xlink:href="#DejaVuSans-32"/>
       <use xlink:href="#DejaVuSans-30" x="63.623047"/>
       <use xlink:href="#DejaVuSans-30" x="127.246094"/>
      </g>
     </g>
    </g>
    <g id="ytick_20">
     <g id="line2d_72">
      <path d="M 46.965625 313.022338 
L 249.874716 313.022338 
" clip-path="url(#pe9c898d410)" style="fill: none; stroke: #b0b0b0; stroke-width: 0.8; stroke-linecap: square"/>
     </g>
     <g id="line2d_73">
      <g>
       <use xlink:href="#m5574992cf1" x="46.965625" y="313.022338" style="stroke: #000000; stroke-width: 0.8"/>
      </g>
     </g>
     <g id="text_41">
      <!-- 300 -->
      <g transform="translate(20.878125 316.821556)scale(0.1 -0.1)">
       <use xlink:href="#DejaVuSans-33"/>
       <use xlink:href="#DejaVuSans-30" x="63.623047"/>
       <use xlink:href="#DejaVuSans-30" x="127.246094"/>
      </g>
     </g>
    </g>
    <g id="ytick_21">
     <g id="line2d_74">
      <path d="M 46.965625 291.843117 
L 249.874716 291.843117 
" clip-path="url(#pe9c898d410)" style="fill: none; stroke: #b0b0b0; stroke-width: 0.8; stroke-linecap: square"/>
     </g>
     <g id="line2d_75">
      <g>
       <use xlink:href="#m5574992cf1" x="46.965625" y="291.843117" style="stroke: #000000; stroke-width: 0.8"/>
      </g>
     </g>
     <g id="text_42">
      <!-- 400 -->
      <g transform="translate(20.878125 295.642336)scale(0.1 -0.1)">
       <use xlink:href="#DejaVuSans-34"/>
       <use xlink:href="#DejaVuSans-30" x="63.623047"/>
       <use xlink:href="#DejaVuSans-30" x="127.246094"/>
      </g>
     </g>
    </g>
    <g id="ytick_22">
     <g id="line2d_76">
      <path d="M 46.965625 270.663896 
L 249.874716 270.663896 
" clip-path="url(#pe9c898d410)" style="fill: none; stroke: #b0b0b0; stroke-width: 0.8; stroke-linecap: square"/>
     </g>
     <g id="line2d_77">
      <g>
       <use xlink:href="#m5574992cf1" x="46.965625" y="270.663896" style="stroke: #000000; stroke-width: 0.8"/>
      </g>
     </g>
     <g id="text_43">
      <!-- 500 -->
      <g transform="translate(20.878125 274.463115)scale(0.1 -0.1)">
       <use xlink:href="#DejaVuSans-35"/>
       <use xlink:href="#DejaVuSans-30" x="63.623047"/>
       <use xlink:href="#DejaVuSans-30" x="127.246094"/>
      </g>
     </g>
    </g>
    <g id="ytick_23">
     <g id="line2d_78">
      <path d="M 46.965625 249.484675 
L 249.874716 249.484675 
" clip-path="url(#pe9c898d410)" style="fill: none; stroke: #b0b0b0; stroke-width: 0.8; stroke-linecap: square"/>
     </g>
     <g id="line2d_79">
      <g>
       <use xlink:href="#m5574992cf1" x="46.965625" y="249.484675" style="stroke: #000000; stroke-width: 0.8"/>
      </g>
     </g>
     <g id="text_44">
      <!-- 600 -->
      <g transform="translate(20.878125 253.283894)scale(0.1 -0.1)">
       <use xlink:href="#DejaVuSans-36"/>
       <use xlink:href="#DejaVuSans-30" x="63.623047"/>
       <use xlink:href="#DejaVuSans-30" x="127.246094"/>
      </g>
     </g>
    </g>
    <g id="ytick_24">
     <g id="line2d_80">
      <path d="M 46.965625 228.305455 
L 249.874716 228.305455 
" clip-path="url(#pe9c898d410)" style="fill: none; stroke: #b0b0b0; stroke-width: 0.8; stroke-linecap: square"/>
     </g>
     <g id="line2d_81">
      <g>
       <use xlink:href="#m5574992cf1" x="46.965625" y="228.305455" style="stroke: #000000; stroke-width: 0.8"/>
      </g>
     </g>
     <g id="text_45">
      <!-- 700 -->
      <g transform="translate(20.878125 232.104673)scale(0.1 -0.1)">
       <use xlink:href="#DejaVuSans-37"/>
       <use xlink:href="#DejaVuSans-30" x="63.623047"/>
       <use xlink:href="#DejaVuSans-30" x="127.246094"/>
      </g>
     </g>
    </g>
    <g id="text_46">
     <!-- Incident flux (w/m^2) -->
     <g transform="translate(14.798438 356.966321)rotate(-90)scale(0.1 -0.1)">
      <use xlink:href="#DejaVuSans-49"/>
      <use xlink:href="#DejaVuSans-6e" x="29.492188"/>
      <use xlink:href="#DejaVuSans-63" x="92.871094"/>
      <use xlink:href="#DejaVuSans-69" x="147.851562"/>
      <use xlink:href="#DejaVuSans-64" x="175.634766"/>
      <use xlink:href="#DejaVuSans-65" x="239.111328"/>
      <use xlink:href="#DejaVuSans-6e" x="300.634766"/>
      <use xlink:href="#DejaVuSans-74" x="364.013672"/>
      <use xlink:href="#DejaVuSans-20" x="403.222656"/>
      <use xlink:href="#DejaVuSans-66" x="435.009766"/>
      <use xlink:href="#DejaVuSans-6c" x="470.214844"/>
      <use xlink:href="#DejaVuSans-75" x="497.998047"/>
      <use xlink:href="#DejaVuSans-78" x="561.376953"/>
      <use xlink:href="#DejaVuSans-20" x="620.556641"/>
      <use xlink:href="#DejaVuSans-28" x="652.34375"/>
      <use xlink:href="#DejaVuSans-77" x="691.357422"/>
      <use xlink:href="#DejaVuSans-2f" x="773.144531"/>
      <use xlink:href="#DejaVuSans-6d" x="806.835938"/>
      <use xlink:href="#DejaVuSans-5e" x="904.248047"/>
      <use xlink:href="#DejaVuSans-32" x="988.037109"/>
      <use xlink:href="#DejaVuSans-29" x="1051.660156"/>
     </g>
    </g>
   </g>
   <g id="line2d_82">
    <path d="M 46.965625 376.56 
L 49.783807 376.56 
L 52.601989 376.56 
L 55.42017 376.56 
L 58.238352 376.56 
L 61.056534 376.56 
L 63.874716 376.56 
L 66.692898 376.56 
L 69.51108 376.56 
L 72.329261 376.56 
L 75.147443 376.56 
L 77.965625 376.56 
L 80.783807 376.56 
L 83.601989 376.56 
L 86.42017 376.56 
L 89.238352 376.56 
L 92.056534 376.56 
L 94.874716 376.56 
L 97.692898 376.56 
L 100.51108 370.029135 
L 103.329261 363.547973 
L 106.147443 357.165841 
L 108.965625 350.93131 
L 111.783807 344.891829 
L 114.601989 339.093362 
L 117.42017 333.580038 
L 120.238352 328.393818 
L 123.056534 323.574172 
L 125.874716 319.15778 
L 128.692898 315.178253 
L 131.51108 311.665879 
L 134.329261 308.647388 
L 137.147443 306.145753 
L 139.965625 304.180013 
L 142.783807 302.765128 
L 145.601989 301.911867 
L 148.42017 301.626724 
L 151.238352 301.911867 
L 154.056534 302.765128 
L 156.874716 304.180013 
L 159.692898 306.145753 
L 162.51108 308.647388 
L 165.329261 311.665879 
L 168.147443 315.178253 
L 170.965625 319.15778 
L 173.783807 323.574172 
L 176.601989 328.393818 
L 179.42017 333.580038 
L 182.238352 339.093362 
L 185.056534 344.891829 
L 187.874716 350.93131 
L 190.692898 357.165841 
L 193.51108 363.547973 
L 196.329261 370.029135 
L 199.147443 376.56 
L 201.965625 376.56 
L 204.783807 376.56 
L 207.601989 376.56 
L 210.42017 376.56 
L 213.238352 376.56 
L 216.056534 376.56 
L 218.874716 376.56 
L 221.692898 376.56 
L 224.51108 376.56 
L 227.329261 376.56 
L 230.147443 376.56 
L 232.965625 376.56 
L 235.783807 376.56 
L 238.601989 376.56 
L 241.42017 376.56 
L 244.238352 376.56 
L 247.056534 376.56 
L 249.874716 376.56 
" clip-path="url(#pe9c898d410)" style="fill: none; stroke: #0000ff; stroke-width: 1.5; stroke-linecap: square"/>
   </g>
   <g id="line2d_83">
    <path d="M 46.965625 356.701866 
L 49.783807 356.777432 
L 52.601989 357.003555 
L 55.42017 357.378515 
L 58.238352 357.899458 
L 61.056534 358.562418 
L 63.874716 359.362351 
L 66.692898 360.293169 
L 69.51108 361.347787 
L 72.329261 362.518179 
L 75.147443 363.795437 
L 77.965625 365.169842 
L 80.783807 366.630933 
L 83.601989 368.16759 
L 86.42017 369.768118 
L 89.238352 371.420337 
L 92.056534 373.111671 
L 94.874716 374.82925 
L 97.692898 376.56 
L 100.51108 376.56 
L 103.329261 376.56 
L 106.147443 376.56 
L 108.965625 376.56 
L 111.783807 376.56 
L 114.601989 376.56 
L 117.42017 376.56 
L 120.238352 376.56 
L 123.056534 376.56 
L 125.874716 376.56 
L 128.692898 376.56 
L 131.51108 376.56 
L 134.329261 376.56 
L 137.147443 376.56 
L 139.965625 376.56 
L 142.783807 376.56 
L 145.601989 376.56 
L 148.42017 376.56 
L 151.238352 376.56 
L 154.056534 376.56 
L 156.874716 376.56 
L 159.692898 376.56 
L 162.51108 376.56 
L 165.329261 376.56 
L 168.147443 376.56 
L 170.965625 376.56 
L 173.783807 376.56 
L 176.601989 376.56 
L 179.42017 376.56 
L 182.238352 376.56 
L 185.056534 376.56 
L 187.874716 376.56 
L 190.692898 376.56 
L 193.51108 376.56 
L 196.329261 376.56 
L 199.147443 376.56 
L 201.965625 374.82925 
L 204.783807 373.111671 
L 207.601989 371.420337 
L 210.42017 369.768118 
L 213.238352 368.16759 
L 216.056534 366.630933 
L 218.874716 365.169842 
L 221.692898 363.795437 
L 224.51108 362.518179 
L 227.329261 361.347787 
L 230.147443 360.293169 
L 232.965625 359.362351 
L 235.783807 358.562418 
L 238.601989 357.899458 
L 241.42017 357.378515 
L 244.238352 357.003555 
L 247.056534 356.777432 
L 249.874716 356.701866 
" clip-path="url(#pe9c898d410)" style="fill: none; stroke: #ff0000; stroke-width: 1.5; stroke-linecap: square"/>
   </g>
   <g id="line2d_84">
    <path d="M 46.965625 331.803202 
L 49.783807 331.803202 
L 52.601989 331.803202 
L 55.42017 331.803202 
L 58.238352 331.803202 
L 61.056534 331.803202 
L 63.874716 331.803202 
L 66.692898 331.803202 
L 69.51108 331.803202 
L 72.329261 331.803202 
L 75.147443 331.803202 
L 77.965625 331.803202 
L 80.783807 331.803202 
L 83.601989 331.803202 
L 86.42017 331.803202 
L 89.238352 331.803202 
L 92.056534 331.803202 
L 94.874716 331.803202 
L 97.692898 331.803202 
L 100.51108 331.803202 
L 103.329261 331.803202 
L 106.147443 331.803202 
L 108.965625 331.803202 
L 111.783807 331.803202 
L 114.601989 331.803202 
L 117.42017 331.803202 
L 120.238352 331.803202 
L 123.056534 331.803202 
L 125.874716 331.803202 
L 128.692898 331.803202 
L 131.51108 331.803202 
L 134.329261 331.803202 
L 137.147443 331.803202 
L 139.965625 331.803202 
L 142.783807 331.803202 
L 145.601989 331.803202 
L 148.42017 331.803202 
L 151.238352 331.803202 
L 154.056534 331.803202 
L 156.874716 331.803202 
L 159.692898 331.803202 
L 162.51108 331.803202 
L 165.329261 331.803202 
L 168.147443 331.803202 
L 170.965625 331.803202 
L 173.783807 331.803202 
L 176.601989 331.803202 
L 179.42017 331.803202 
L 182.238352 331.803202 
L 185.056534 331.803202 
L 187.874716 331.803202 
L 190.692898 331.803202 
L 193.51108 331.803202 
L 196.329261 331.803202 
L 199.147443 331.803202 
L 201.965625 331.803202 
L 204.783807 331.803202 
L 207.601989 331.803202 
L 210.42017 331.803202 
L 213.238352 331.803202 
L 216.056534 331.803202 
L 218.874716 331.803202 
L 221.692898 331.803202 
L 224.51108 331.803202 
L 227.329261 331.803202 
L 230.147443 331.803202 
L 232.965625 331.803202 
L 235.783807 331.803202 
L 238.601989 331.803202 
L 241.42017 331.803202 
L 244.238352 331.803202 
L 247.056534 331.803202 
L 249.874716 331.803202 
" clip-path="url(#pe9c898d410)" style="fill: none; stroke: #008000; stroke-width: 1.5; stroke-linecap: square"/>
   </g>
   <g id="patch_14">
    <path d="M 46.965625 376.56 
L 46.965625 228.305455 
" style="fill: none; stroke: #000000; stroke-width: 0.8; stroke-linejoin: miter; stroke-linecap: square"/>
   </g>
   <g id="patch_15">
    <path d="M 249.874716 376.56 
L 249.874716 228.305455 
" style="fill: none; stroke: #000000; stroke-width: 0.8; stroke-linejoin: miter; stroke-linecap: square"/>
   </g>
   <g id="patch_16">
    <path d="M 46.965625 376.56 
L 249.874716 376.56 
" style="fill: none; stroke: #000000; stroke-width: 0.8; stroke-linejoin: miter; stroke-linecap: square"/>
   </g>
   <g id="patch_17">
    <path d="M 46.965625 228.305455 
L 249.874716 228.305455 
" style="fill: none; stroke: #000000; stroke-width: 0.8; stroke-linejoin: miter; stroke-linecap: square"/>
   </g>
   <g id="text_47">
    <!-- beta=75deg -->
    <g transform="translate(49.783807 249.484675)scale(0.1 -0.1)">
     <use xlink:href="#DejaVuSans-62"/>
     <use xlink:href="#DejaVuSans-65" x="63.476562"/>
     <use xlink:href="#DejaVuSans-74" x="125"/>
     <use xlink:href="#DejaVuSans-61" x="164.208984"/>
     <use xlink:href="#DejaVuSans-3d" x="225.488281"/>
     <use xlink:href="#DejaVuSans-37" x="309.277344"/>
     <use xlink:href="#DejaVuSans-35" x="372.900391"/>
     <use xlink:href="#DejaVuSans-64" x="436.523438"/>
     <use xlink:href="#DejaVuSans-65" x="500"/>
     <use xlink:href="#DejaVuSans-67" x="561.523438"/>
    </g>
   </g>
   <g id="legend_2">
    <g id="patch_18">
     <path d="M 157.457528 280.33983 
L 242.874716 280.33983 
Q 244.874716 280.33983 244.874716 278.33983 
L 244.874716 235.305455 
Q 244.874716 233.305455 242.874716 233.305455 
L 157.457528 233.305455 
Q 155.457528 233.305455 155.457528 235.305455 
L 155.457528 278.33983 
Q 155.457528 280.33983 157.457528 280.33983 
z
" style="fill: #ffffff; opacity: 0.8; stroke: #cccccc; stroke-linejoin: miter"/>
    </g>
    <g id="line2d_85">
     <path d="M 159.457528 241.403892 
L 169.457528 241.403892 
L 179.457528 241.403892 
" style="fill: none; stroke: #0000ff; stroke-width: 1.5; stroke-linecap: square"/>
    </g>
    <g id="text_48">
     <!-- Solar -->
     <g transform="translate(187.457528 244.903892)scale(0.1 -0.1)">
      <use xlink:href="#DejaVuSans-53"/>
      <use xlink:href="#DejaVuSans-6f" x="63.476562"/>
      <use xlink:href="#DejaVuSans-6c" x="124.658203"/>
      <use xlink:href="#DejaVuSans-61" x="152.441406"/>
      <use xlink:href="#DejaVuSans-72" x="213.720703"/>
     </g>
    </g>
    <g id="line2d_86">
     <path d="M 159.457528 256.082017 
L 169.457528 256.082017 
L 179.457528 256.082017 
" style="fill: none; stroke: #ff0000; stroke-width: 1.5; stroke-linecap: square"/>
    </g>
    <g id="text_49">
     <!-- Albedo -->
     <g transform="translate(187.457528 259.582017)scale(0.1 -0.1)">
      <use xlink:href="#DejaVuSans-41"/>
      <use xlink:href="#DejaVuSans-6c" x="68.408203"/>
      <use xlink:href="#DejaVuSans-62" x="96.191406"/>
      <use xlink:href="#DejaVuSans-65" x="159.667969"/>
      <use xlink:href="#DejaVuSans-64" x="221.191406"/>
      <use xlink:href="#DejaVuSans-6f" x="284.667969"/>
     </g>
    </g>
    <g id="line2d_87">
     <path d="M 159.457528 270.760142 
L 169.457528 270.760142 
L 179.457528 270.760142 
" style="fill: none; stroke: #008000; stroke-width: 1.5; stroke-linecap: square"/>
    </g>
    <g id="text_50">
     <!-- Earth glow -->
     <g transform="translate(187.457528 274.260142)scale(0.1 -0.1)">
      <use xlink:href="#DejaVuSans-45"/>
      <use xlink:href="#DejaVuSans-61" x="63.183594"/>
      <use xlink:href="#DejaVuSans-72" x="124.462891"/>
      <use xlink:href="#DejaVuSans-74" x="165.576172"/>
      <use xlink:href="#DejaVuSans-68" x="204.785156"/>
      <use xlink:href="#DejaVuSans-20" x="268.164062"/>
      <use xlink:href="#DejaVuSans-67" x="299.951172"/>
      <use xlink:href="#DejaVuSans-6c" x="363.427734"/>
      <use xlink:href="#DejaVuSans-6f" x="391.210938"/>
      <use xlink:href="#DejaVuSans-77" x="452.392578"/>
     </g>
    </g>
   </g>
  </g>
  <g id="text_51">
   <!-- Variation of heating to nadir-facing surface (pg 131-132) -->
   <g transform="translate(93.274375 16.318125)scale(0.12 -0.12)">
    <defs>
     <path id="DejaVuSans-56" d="M 1831 0 
L 50 4666 
L 709 4666 
L 2188 738 
L 3669 4666 
L 4325 4666 
L 2547 0 
L 1831 0 
z
" transform="scale(0.015625)"/>
     <path id="DejaVuSans-2d" d="M 313 2009 
L 1997 2009 
L 1997 1497 
L 313 1497 
L 313 2009 
z
" transform="scale(0.015625)"/>
     <path id="DejaVuSans-73" d="M 2834 3397 
L 2834 2853 
Q 2591 2978 2328 3040 
Q 2066 3103 1784 3103 
Q 1356 3103 1142 2972 
Q 928 2841 928 2578 
Q 928 2378 1081 2264 
Q 1234 2150 1697 2047 
L 1894 2003 
Q 2506 1872 2764 1633 
Q 3022 1394 3022 966 
Q 3022 478 2636 193 
Q 2250 -91 1575 -91 
Q 1294 -91 989 -36 
Q 684 19 347 128 
L 347 722 
Q 666 556 975 473 
Q 1284 391 1588 391 
Q 1994 391 2212 530 
Q 2431 669 2431 922 
Q 2431 1156 2273 1281 
Q 2116 1406 1581 1522 
L 1381 1569 
Q 847 1681 609 1914 
Q 372 2147 372 2553 
Q 372 3047 722 3315 
Q 1072 3584 1716 3584 
Q 2034 3584 2315 3537 
Q 2597 3491 2834 3397 
z
" transform="scale(0.015625)"/>
     <path id="DejaVuSans-70" d="M 1159 525 
L 1159 -1331 
L 581 -1331 
L 581 3500 
L 1159 3500 
L 1159 2969 
Q 1341 3281 1617 3432 
Q 1894 3584 2278 3584 
Q 2916 3584 3314 3078 
Q 3713 2572 3713 1747 
Q 3713 922 3314 415 
Q 2916 -91 2278 -91 
Q 1894 -91 1617 61 
Q 1341 213 1159 525 
z
M 3116 1747 
Q 3116 2381 2855 2742 
Q 2594 3103 2138 3103 
Q 1681 3103 1420 2742 
Q 1159 2381 1159 1747 
Q 1159 1113 1420 752 
Q 1681 391 2138 391 
Q 2594 391 2855 752 
Q 3116 1113 3116 1747 
z
" transform="scale(0.015625)"/>
    </defs>
    <use xlink:href="#DejaVuSans-56"/>
    <use xlink:href="#DejaVuSans-61" x="60.658203"/>
    <use xlink:href="#DejaVuSans-72" x="121.9375"/>
    <use xlink:href="#DejaVuSans-69" x="163.050781"/>
    <use xlink:href="#DejaVuSans-61" x="190.833984"/>
    <use xlink:href="#DejaVuSans-74" x="252.113281"/>
    <use xlink:href="#DejaVuSans-69" x="291.322266"/>
    <use xlink:href="#DejaVuSans-6f" x="319.105469"/>
    <use xlink:href="#DejaVuSans-6e" x="380.287109"/>
    <use xlink:href="#DejaVuSans-20" x="443.666016"/>
    <use xlink:href="#DejaVuSans-6f" x="475.453125"/>
    <use xlink:href="#DejaVuSans-66" x="536.634766"/>
    <use xlink:href="#DejaVuSans-20" x="571.839844"/>
    <use xlink:href="#DejaVuSans-68" x="603.626953"/>
    <use xlink:href="#DejaVuSans-65" x="667.005859"/>
    <use xlink:href="#DejaVuSans-61" x="728.529297"/>
    <use xlink:href="#DejaVuSans-74" x="789.808594"/>
    <use xlink:href="#DejaVuSans-69" x="829.017578"/>
    <use xlink:href="#DejaVuSans-6e" x="856.800781"/>
    <use xlink:href="#DejaVuSans-67" x="920.179688"/>
    <use xlink:href="#DejaVuSans-20" x="983.65625"/>
    <use xlink:href="#DejaVuSans-74" x="1015.443359"/>
    <use xlink:href="#DejaVuSans-6f" x="1054.652344"/>
    <use xlink:href="#DejaVuSans-20" x="1115.833984"/>
    <use xlink:href="#DejaVuSans-6e" x="1147.621094"/>
    <use xlink:href="#DejaVuSans-61" x="1211"/>
    <use xlink:href="#DejaVuSans-64" x="1272.279297"/>
    <use xlink:href="#DejaVuSans-69" x="1335.755859"/>
    <use xlink:href="#DejaVuSans-72" x="1363.539062"/>
    <use xlink:href="#DejaVuSans-2d" x="1398.277344"/>
    <use xlink:href="#DejaVuSans-66" x="1434.361328"/>
    <use xlink:href="#DejaVuSans-61" x="1469.566406"/>
    <use xlink:href="#DejaVuSans-63" x="1530.845703"/>
    <use xlink:href="#DejaVuSans-69" x="1585.826172"/>
    <use xlink:href="#DejaVuSans-6e" x="1613.609375"/>
    <use xlink:href="#DejaVuSans-67" x="1676.988281"/>
    <use xlink:href="#DejaVuSans-20" x="1740.464844"/>
    <use xlink:href="#DejaVuSans-73" x="1772.251953"/>
    <use xlink:href="#DejaVuSans-75" x="1824.351562"/>
    <use xlink:href="#DejaVuSans-72" x="1887.730469"/>
    <use xlink:href="#DejaVuSans-66" x="1928.84375"/>
    <use xlink:href="#DejaVuSans-61" x="1964.048828"/>
    <use xlink:href="#DejaVuSans-63" x="2025.328125"/>
    <use xlink:href="#DejaVuSans-65" x="2080.308594"/>
    <use xlink:href="#DejaVuSans-20" x="2141.832031"/>
    <use xlink:href="#DejaVuSans-28" x="2173.619141"/>
    <use xlink:href="#DejaVuSans-70" x="2212.632812"/>
    <use xlink:href="#DejaVuSans-67" x="2276.109375"/>
    <use xlink:href="#DejaVuSans-20" x="2339.585938"/>
    <use xlink:href="#DejaVuSans-31" x="2371.373047"/>
    <use xlink:href="#DejaVuSans-33" x="2434.996094"/>
    <use xlink:href="#DejaVuSans-31" x="2498.619141"/>
    <use xlink:href="#DejaVuSans-2d" x="2562.242188"/>
    <use xlink:href="#DejaVuSans-31" x="2598.326172"/>
    <use xlink:href="#DejaVuSans-33" x="2661.949219"/>
    <use xlink:href="#DejaVuSans-32" x="2725.572266"/>
    <use xlink:href="#DejaVuSans-29" x="2789.195312"/>
   </g>
  </g>
 </g>
 <defs>
  <clipPath id="pc340cc9469">
   <rect x="46.965625" y="50.4" width="202.909091" height="148.254545"/>
  </clipPath>
  <clipPath id="p42a9d61e5b">
   <rect x="290.456534" y="50.4" width="202.909091" height="148.254545"/>
  </clipPath>
  <clipPath id="pe9c898d410">
   <rect x="46.965625" y="228.305455" width="202.909091" height="148.254545"/>
  </clipPath>
 </defs>
</svg>
